# WaveFront *.obj file (generated by Cinema 4D)

mtllib ./Hersens.mtl

v 0.2022520005703 11.68064022064209 2.78552794456482
v 0.2022520005703 -8.94008636474609 2.78552508354187
v 5.35743379592896 8.66080474853516 7.94071006774902
v 0.2022520005703 8.66080379486084 10.07605075836182
v -4.9529299736023 8.66080474853516 7.94071006774902
v -7.08827686309814 8.66080570220947 2.7855269908905
v -4.9529299736023 8.66080570220947 -2.36965489387512
v 0.2022520005703 8.66080665588379 -4.50500106811523
v 7.49278116226196 8.66080570220947 2.7855269908905
v 5.35743379592896 8.66080570220947 -2.36965489387512
v 7.49278116226196 1.37027597427368 10.0760498046875
v 5.35743379592896 -5.92025184631348 7.94070720672607
v 0.2022520005703 1.37027597427368 13.09589004516602
v 0.2022520005703 -5.92025184631348 10.07604885101318
v -7.08827686309814 1.37027597427368 10.0760498046875
v -4.9529299736023 -5.92025184631348 7.94070720672607
v -10.10811042785645 1.3702780008316 2.78552603721619
v -7.08827686309814 -5.92025089263916 2.78552508354187
v -7.08827686309814 1.37027895450592 -4.50500202178955
v -4.9529299736023 -5.92024993896484 -2.36965703964233
v 0.2022520005703 1.37027895450592 -7.52483797073364
v 0.2022520005703 -5.92024993896484 -4.50500297546387
v 7.49278116226196 -5.92025089263916 2.78552508354187
v 10.512619972229 1.3702780008316 2.78552603721619
v 7.49278116226196 1.37027895450592 -4.50500202178955
v -5.99414396286011 -7.00786018371582 0.12484399974346
v -5.01675701141357 -5.03613901138306 -3.90775299072266
v -4.24066781997681 -3.33417892456055 -2.16308999061584
v -5.4453649520874 -5.8043909072876 1.35850596427917
v -7.34813499450684 -7.4404468536377 -0.46823900938034
v -6.93159103393555 -5.64791107177734 -4.74649906158447
v -8.71419143676758 -6.84875011444092 -0.07332299649715
v -8.86348628997803 -4.81112384796143 -4.18800401687622
v -9.29209518432617 -5.57937479019165 1.0782550573349
v -9.68076324462891 -3.01595902442932 -2.55942606925964
v -8.74331665039062 -4.37590599060059 2.3119170665741
v -8.9046745300293 -1.31399703025818 -0.81476402282715
v -7.38932514190674 -3.94332098960876 2.90499997138977
v -6.98984098434448 -0.70222598314285 0.02398199960589
v -6.02326917648315 -4.5350170135498 2.5100839138031
v -5.05794620513916 -1.53901302814484 -0.53451299667358
v -5.17811489105225 -1.97422897815704 -7.03443288803101
v -4.62933683395386 -0.77076101303101 -5.80077219009399
v -6.53210687637329 -2.4068169593811 -7.62751579284668
v -7.89816284179688 -1.81511902809143 -7.2326021194458
v -8.47606658935547 -0.54574602842331 -6.08102178573608
v -7.92728900909424 0.65772199630737 -4.84736108779907
v -6.57329702377319 1.09030997753143 -4.2542781829834
v -5.20724105834961 0.49861198663712 -4.64919281005859
v -7.53773498535156 -6.73438310623169 2.70111608505249
v -6.38369703292847 0.38424500823021 -7.42363214492798
v 8.56999111175537 -7.13781499862671 -0.20101000368595
v 8.47142124176025 -5.25204801559448 -4.38896512985229
v 9.97112274169922 -3.69255208969116 -3.02452707290649
v 9.6304407119751 -6.03508377075195 0.76379400491714
v 7.05413913726807 -7.3802318572998 -0.32591000199318
v 6.32768201828003 -5.59487915039062 -4.56559991836548
v 5.97084999084473 -6.62033081054688 0.46225899457932
v 4.79568099975586 -4.52021598815918 -3.45096206665039
v 5.95469999313354 -5.30325317382812 1.7017970085144
v 4.77284097671509 -2.65758490562439 -1.69798898696899
v 7.01515007019043 -4.20052099227905 2.66660094261169
v 6.27254390716553 -1.09808802604675 -0.33355098962784
v 8.53100204467773 -3.95810294151306 2.79150104522705
v 8.41628265380859 -0.75525897741318 -0.15691600739956
v 9.61429119110107 -4.71800518035889 2.00333189964294
v 9.94828414916992 -1.82992005348206 -1.2715539932251
v 7.72881412506104 -2.1496160030365 -7.3891167640686
v 8.78926372528076 -1.04688501358032 -6.42431306838989
v 6.21296310424805 -2.39203405380249 -7.51401805877686
v 5.12967300415039 -1.63213205337524 -6.72584915161133
v 5.11352396011353 -0.31505298614502 -5.48631000518799
v 6.17397403717041 0.78767800331116 -4.52150583267212
v 7.68982601165771 1.03009605407715 -4.39660596847534
v 8.77311420440674 0.27019500732422 -5.18477487564087
v 7.96678400039673 -6.70225811004639 2.72150111198425
v 6.77718114852905 0.35212099552155 -7.44401693344116
v 4.30062198638916 -4.72835206985474 -0.18611200153828
v 5.99822187423706 -5.71821689605713 -6.14390420913696
v 8.39899158477783 0.03587700054049 -5.4484338760376
v 5.99822187423706 -0.65959298610687 0.30565899610519
v 0.2022520005703 -6.41368722915649 -0.38981100916862
v 0.2022520005703 -8.10164070129395 -6.43197679519653
v -3.89611792564392 -4.72835206985474 -0.18611200153828
v -5.59371900558472 -5.71821689605713 -6.14390420913696
v -5.59371900558472 -0.65959298610687 0.30565899610519
v -7.99448776245117 0.03587700054049 -5.4484338760376
v -3.89611792564392 3.4091649055481 0.79743099212646
v -5.59371900558472 5.78996992111206 -4.75296401977539
v 0.2022520005703 5.09450006484985 1.00112903118134
v 0.2022520005703 8.17339420318604 -4.46489095687866
v 4.30062198638916 3.4091649055481 0.79743099212646
v 5.99822187423706 5.78996992111206 -4.75296401977539
v 4.30062198638916 -3.33741211891174 -11.69430065155029
v 5.99822187423706 0.73134702444077 -11.20252990722656
v 0.2022520005703 -5.02274703979492 -11.89800071716309
v -3.89611792564392 -3.33741211891174 -11.69430065155029
v -5.59371900558472 0.73134702444077 -11.20252990722656
v -3.89611792564392 4.80010509490967 -10.71075916290283
v 0.2022520005703 6.48543882369995 -10.50705909729004
v 4.30062198638916 4.80010509490967 -10.71075916290283
v 0.2022520005703 -0.94766598939896 2.68908309936523
v 0.2022520005703 1.01942002773285 -13.58594989776611
v 5.35743379592896 -5.92024993896484 -2.36965703964233
# 104 vertices

vn 0.69891875982285 0.71520102024078 0
vn 0.49421441555023 0.71519523859024 0.49421441555023
vn 0 1 0
vn 0 0 0
vn 0 -1 0
vn 0.49421441555023 -0.71519523859024 0.49421441555023
vn 0.69891875982285 -0.71520102024078 0
vn 0 0.71520102024078 0.69891875982285
vn 0 -0.71520102024078 0.69891875982285
vn -0.87498193979263 -0.48407617211342 -0.00876526907086
vn -0.49421441555023 0.71519523859024 0.49421441555023
vn -0.49421441555023 -0.71519523859024 0.49421441555023
vn -0.69891875982285 0.71520102024078 0
vn -0.69891875982285 -0.71520102024078 0
vn -0.49421441555023 0.71519523859024 -0.49421441555023
vn -0.49421441555023 -0.71519523859024 -0.49421441555023
vn 0 0.71520102024078 -0.69891875982285
vn 0 -0.71520102024078 -0.69891875982285
vn 0.49421441555023 0.71519523859024 -0.49421441555023
vn 0.49421441555023 -0.71519523859024 -0.49421441555023
vn 0.70710676908493 0 0.70710676908493
vn 1 0 0
vn 0 0 1
vn -0.70710676908493 0 0.70710676908493
vn -1 0 0
vn -0.70710676908493 0 -0.70710676908493
vn 0 0 -1
vn 0.70710676908493 0 -0.70710676908493
vn 0.82628697156906 -0.382767111063 0.41320598125458
vn 0.99567538499832 -0.05812611803412 0.07247014343739
vn 0.75334495306015 -0.57346218824387 -0.32188886404037
vn 0.58088487386703 -0.8085572719574 0.09385039657354
vn -0.00515635591 -0.81423544883728 -0.58051186800003
vn -0.05225032195449 -0.99528735876083 -0.0816880017519
vn -0.76034224033356 -0.48494511842728 -0.43209713697433
vn -0.6781759262085 -0.73489636182785 0.00218756357208
vn -0.99567538499832 0.05812611803412 -0.07247014343739
vn -0.91603606939316 -0.28091731667519 0.28629252314568
vn -0.75334495306015 0.57346218824387 0.32188886404037
vn -0.72373950481415 0.13609765470028 0.67651945352554
vn 0.00515635591 0.81423544883728 0.58051186800003
vn -0.05097217485309 0.31055212020874 0.94918870925903
vn 0.76034224033356 0.48494511842728 0.43209713697433
vn 0.62925088405609 0.05709666758776 0.77510207891464
vn 0.91603606939316 0.28091731667519 -0.28629252314568
vn 0.72373950481415 -0.13609765470028 -0.67651945352554
vn 0.05097217485309 -0.31055212020874 -0.94918870925903
vn -0.62925088405609 -0.05709666758776 -0.77510207891464
vn -0.82628697156906 0.382767111063 -0.41320598125458
vn -0.58088487386703 0.8085572719574 -0.09385039657354
vn 0.05225032195449 0.99528735876083 0.0816880017519
vn 0.6781759262085 0.73489636182785 -0.00218756357208
vn -0.09281731396914 -0.67006599903107 0.73647570610046
vn 0 0 -1
vn 0.09281731396914 0.67006599903107 -0.73647570610046
vn -0.09024523943663 0.99591958522797 0
vn 0.99972116947174 0.023612562567 0
vn 0 1 0
vn -0.57735025882721 -0.57735025882721 0.57735025882721
vn 0.85767793655396 -0.49399924278259 0.1426650583744
vn 0.95141869783401 -0.18935243785381 -0.2427923977375
vn 0.5326726436615 -0.66255164146423 -0.52657872438431
vn 0.47130778431892 -0.87908071279526 -0.0713165178895
vn -0.29328590631485 -0.79785639047623 -0.52669584751129
vn -0.20331951975822 -0.97853380441666 -0.03365741297603
vn -0.91371411085129 -0.37460467219353 -0.15747334063053
vn -0.73174911737442 -0.6395577788353 0.23560352623463
vn -0.95141869783401 0.18935243785381 0.2427923977375
vn -0.80719751119614 -0.16241455078125 0.56749773025513
vn -0.5326726436615 0.66255164146423 0.52657872438431
vn -0.44939717650414 0.21997959911823 0.86582398414612
vn 0.29328590631485 0.79785639047623 0.52669584751129
vn 0.29159939289093 0.30050578713417 0.9081112742424
vn 0.91371411085129 0.37460467219353 0.15747334063053
vn 0.84345233440399 -0.03734579309821 0.53590428829193
vn 0.80719751119614 0.16241455078125 -0.56749773025513
vn 0.44939717650414 -0.21997959911823 -0.86582398414612
vn -0.29159939289093 -0.30050578713417 -0.9081112742424
vn -0.84345233440399 0.03734579309821 -0.53590428829193
vn -0.85767793655396 0.49399924278259 -0.1426650583744
vn -0.47130778431892 0.87908071279526 0.0713165178895
vn 0.20331951975822 0.97853380441666 0.03365741297603
vn 0.73177826404572 0.63952469825745 -0.23560285568237
vn 0.05847159400582 -0.6628760099411 0.74644255638123
vn -0.05847159400582 0.6628760099411 -0.74644255638123
vn 0 1 0
vn 0.69888800382614 -0.08572034537792 0.71007573604584
vn 0.7071031332016 -0.70200932025909 -0.08478237688541
vn 0.49416488409042 -0.57645279169083 0.65077126026154
vn 0 -0.99278056621552 -0.1199449673295
vn 0 -0.77965384721756 0.62621068954468
vn -0.7071031332016 -0.70200932025909 -0.08478237688541
vn -0.49420091509819 -0.57639068365097 0.65079891681671
vn -0.69886642694473 -0.08581528067589 0.71008551120758
vn -0.7071031332016 0.70200932025909 0.08478237688541
vn -0.49416229128838 0.40481179952621 0.76937055587769
vn 0 0.99278056621552 0.1199449673295
vn 0 0.60796040296555 0.79396736621857
vn 0.7071031332016 0.70200932025909 0.08478237688541
vn 0.49416229128838 0.40481179952621 0.76937055587769
vn 0.69888800382614 0.08572034537792 -0.71007573604584
vn 0.49416229128838 -0.40481179952621 -0.76937055587769
vn 0 -0.60796040296555 -0.79396736621857
vn -0.49416229128838 -0.40481179952621 -0.76937055587769
vn -0.69888800382614 0.08572034537792 -0.71007573604584
vn -0.49420091509819 0.57639068365097 -0.65079891681671
vn 0 0.77965384721756 -0.62621068954468
vn 0.49420091509819 0.57639068365097 -0.65079891681671
vn 0 -0.1199449673295 0.99278056621552
vn 0 0.1199449673295 -0.99278056621552
vn -1 0 0
vn -0.09018494188786 0.99592500925064 0
# 112 normals

vt 0.46714401245117 0.93790298700333 0
vt 0.42243701219559 0.91695201396942 0
vt 0.37689399719238 0.97918099164963 0
vt 0 1 0
vt 0.37428098917007 0.7248370051384 0
vt 0.4211939573288 0.78649199008942 0
vt 0.4604189991951 0.76630997657776 0
vt 0.37558197975159 0.91180199384689 0
vt 0.37558096647263 0.79221600294113 0
vt 0.32997298240662 0.91752898693085 0
vt 0.32872599363327 0.78706401586533 0
vt 0.29075500369072 0.9377189874649 0
vt 0.28401899337769 0.76611196994782 0
vt 0.70225298404694 0.87363600730896 0
vt 0.65754592418671 0.85268402099609 0
vt 0.61200302839279 0.9149129986763 0
vt 0.60939002037048 0.66057002544403 0
vt 0.65630197525024 0.72222399711609 0
vt 0.69552797079086 0.70204204320908 0
vt 0.61068999767303 0.84753400087357 0
vt 0.61068999767303 0.72794902324677 0
vt 0.56508195400238 0.85326200723648 0
vt 0.56383395195007 0.72279703617096 0
vt 0.52586400508881 0.87345099449158 0
vt 0.51912701129913 0.70184499025345 0
vt 0.43607997894287 0.85164296627045 0
vt 0.49940800666809 0.84886598587036 0
vt 0.37558197975159 0.85200899839401 0
vt 0.31508296728134 0.85237503051758 0
vt 0.25175601243973 0.85516101121902 0
vt 0.67118799686432 0.78737497329712 0
vt 0.73451697826386 0.78459799289703 0
vt 0.61068999767303 0.78774201869965 0
vt 0.55019199848175 0.78810799121857 0
vt 0.48686501383781 0.79089403152466 0
vt 0.84020400047302 0.2849280834198 0
vt 0.84090995788574 0.32583999633789 0
vt 0.86536991596222 0.328822016716 0
vt 0.85722899436951 0.28523504734039 0
vt 0.88637399673462 0.32994699478149 0
vt 0.87090301513672 0.28074300289154 0
vt 0.09666100144386 0.90442097187042 0
vt 0.08032300323248 0.94097000360489 0
vt 0.09643599390984 0.9417849779129 0
vt 0.10705900192261 0.90975898504257 0
vt 0.11529599130154 0.94204097986221 0
vt 0.12022599577904 0.91138696670532 0
vt 0.13415598869324 0.94229602813721 0
vt 0.13311198353767 0.91026997566223 0
vt 0.15026900172234 0.94311201572418 0
vt 0.14335399866104 0.90649598836899 0
vt 0.80965501070023 0.27466201782227 0
vt 0.79544502496719 0.32173299789429 0
vt 0.81644999980927 0.32285797595978 0
vt 0.82334494590759 0.28152000904083 0
vt 0.84161698818207 0.36675202846527 0
vt 0.85847496986389 0.37015902996063 0
vt 0.87216597795486 0.3770170211792 0
vt 0.08723899722099 0.97758603096008 0
vt 0.0974799990654 0.97381198406219 0
vt 0.110367000103 0.9726949930191 0
vt 0.12353399395943 0.97432202100754 0
vt 0.13393099606037 0.97965997457504 0
vt 0.81091701984406 0.37093806266785 0
vt 0.82459092140198 0.36644601821899 0
vt 0.83988201618195 0.25891208648682 0
vt 0.84193998575211 0.39276802539825 0
vt 0.1229220032692 0.89167201519012 0
vt 0.10767100006342 0.99241000413895 0
vt 0.21465900540352 0.94601798057556 0
vt 0.21395298838615 0.90510600805283 0
vt 0.18949300050735 0.90212398767471 0
vt 0.19763398170471 0.94571101665497 0
vt 0.16848799586296 0.90099900960922 0
vt 0.18396000564098 0.95020300149918 0
vt 0.0555609986186 0.97965997457504 0
vt 0.07190000265837 0.94310998916626 0
vt 0.05578699707985 0.94229501485825 0
vt 0.04516399651766 0.97432202100754 0
vt 0.03692600131035 0.9420400261879 0
vt 0.03199699521065 0.97269397974014 0
vt 0.01806600019336 0.94178402423859 0
vt 0.01910999789834 0.97381103038788 0
vt 0.00195299996994 0.94096899032593 0
vt 0.00886899977922 0.97758400440216 0
vt 0.24520799517632 0.95628398656845 0
vt 0.25941801071167 0.90921300649643 0
vt 0.23841300606728 0.90808701515198 0
vt 0.23151698708534 0.94942498207092 0
vt 0.21324598789215 0.86419403553009 0
vt 0.19638800621033 0.86078703403473 0
vt 0.18269699811935 0.85392796993256 0
vt 0.06498300284147 0.90649402141571 0
vt 0.05474200099707 0.91026902198792 0
vt 0.04185599833727 0.91138601303101 0
vt 0.02868900075555 0.90975898504257 0
vt 0.0182910002768 0.90442001819611 0
vt 0.24394500255585 0.86000800132751 0
vt 0.2302719950676 0.86450004577637 0
vt 0.21498100459576 0.97203397750854 0
vt 0.21292300522327 0.83817803859711 0
vt 0.02930000051856 0.99240899085999 0
vt 0.04455199837685 0.89167100191116 0
vt 0.68359792232513 0.12569606304169 0
vt 0.73647701740265 0.12569904327393 0
vt 0.73615300655365 0.0721960067749 0
vt 0.67853498458862 0.08536005020142 0
vt 0.73369300365448 0.01619100570679 0
vt 0.6606850028038 0.05067300796509 0
vt 0.74083197116852 0.94566702842712 0
vt 0.80265200138092 0.96806502342224 0
vt 0.80071794986725 0.92410099506378 0
vt 0.75537693500519 0.91462999582291 0
vt 0.80046391487122 0.88210099935532 0
vt 0.75895392894745 0.88210099935532 0
vt 0.80020999908447 0.84010100364685 0
vt 0.75497901439667 0.85043597221375 0
vt 0.79828202724457 0.79613697528839 0
vt 0.74096900224686 0.82320404052734 0
vt 0.66051298379898 0.20666706562042 0
vt 0.73925799131393 0.23520398139954 0
vt 0.73680198192596 0.17920005321503 0
vt 0.6790429353714 0.16713201999664 0
vt 0.78935599327087 0.12569904327393 0
vt 0.79390895366669 0.08426105976105 0
vt 0.81243497133255 0.04472208023071 0
vt 0.85996598005295 0.94098997116089 0
vt 0.84595000743866 0.91376399993896 0
vt 0.84197402000427 0.88210099935532 0
vt 0.84554898738861 0.84957301616669 0
vt 0.86009401082993 0.81853497028351 0
vt 0.8122730255127 0.2007200717926 0
vt 0.79442095756531 0.1660350561142 0
vt 0.6240119934082 0.12684905529022 0
vt 0.84894198179245 0.12453603744507 0
vt 0.7121769785881 0.88300400972366 0
vt 0.8887500166893 0.88119000196457 0
# 137 texture coordinates

o Hersenzooi
usemtl default
f 1/3/3 3/2/2 9/1/1
f 23/7/7 12/6/6 2/5/5
f 1/3/3 4/8/8 3/2/2
f 12/6/6 14/9/9 2/5/5
f 1/3/3 5/10/11 4/8/8
f 14/9/9 16/11/12 2/5/5
f 1/3/3 6/12/13 5/10/11
f 16/11/12 18/13/14 2/5/5
f 1/16/3 7/15/15 6/14/13
f 18/19/14 20/18/16 2/17/5
f 1/16/3 8/20/17 7/15/15
f 20/18/16 22/21/18 2/17/5
f 1/16/3 10/22/19 8/20/17
f 22/21/18 104/23/20 2/17/5
f 1/16/3 9/24/1 10/22/19
f 104/23/20 23/25/7 2/17/5
f 24/27/22 9/1/1 3/2/2 11/26/21
f 11/26/21 3/2/2 4/8/8 13/28/23
f 13/28/23 4/8/8 5/10/11 15/29/24
f 15/29/24 5/10/11 6/12/13 17/30/25
f 17/32/25 6/14/13 7/15/15 19/31/26
f 19/31/26 7/15/15 8/20/17 21/33/27
f 21/33/27 8/20/17 10/22/19 25/34/28
f 25/34/28 10/22/19 9/24/1 24/35/22
f 23/7/7 24/27/22 11/26/21 12/6/6
f 12/6/6 11/26/21 13/28/23 14/9/9
f 14/9/9 13/28/23 15/29/24 16/11/12
f 26/39/32 27/38/31 28/37/30 29/36/29
f 30/41/34 31/40/33 27/38/31 26/39/32
f 32/45/36 33/44/35 31/43/33 30/42/34
f 34/47/38 35/46/37 33/44/35 32/45/36
f 36/49/40 37/48/39 35/46/37 34/47/38
f 38/51/42 39/50/41 37/48/39 36/49/40
f 40/55/44 41/54/43 39/53/41 38/52/42
f 29/36/29 28/37/30 41/54/43 40/55/44
f 27/38/31 42/57/46 43/56/45 28/37/30
f 31/40/33 44/58/47 42/57/46 27/38/31
f 33/44/35 45/60/48 44/59/47 31/43/33
f 35/46/37 46/61/49 45/60/48 33/44/35
f 37/48/39 47/62/50 46/61/49 35/46/37
f 39/50/41 48/63/51 47/62/50 37/48/39
f 41/54/43 49/65/52 48/64/51 39/53/41
f 28/37/30 43/56/45 49/65/52 41/54/43
f 26/39/32 29/36/29 50/66/53
f 51/67/55 43/56/45 42/57/46
f 30/41/34 26/39/32 50/66/53
f 51/67/55 42/57/46 44/58/47
f 32/45/36 30/42/34 50/68/53
f 51/69/55 44/59/47 45/60/48
f 34/47/38 32/45/36 50/68/53
f 51/69/55 45/60/48 46/61/49
f 36/49/40 34/47/38 50/68/53
f 51/69/55 46/61/49 47/62/50
f 38/51/42 36/49/40 50/68/53
f 51/69/55 47/62/50 48/63/51
f 40/55/44 38/52/42 50/66/53
f 51/67/55 48/64/51 49/65/52
f 29/36/29 40/55/44 50/66/53
f 51/67/55 49/65/52 43/56/45
f 52/73/63 53/72/62 54/71/61 55/70/60
f 56/75/65 57/74/64 53/72/62 52/73/63
f 58/79/67 59/78/66 57/77/64 56/76/65
f 60/81/69 61/80/68 59/78/66 58/79/67
f 62/83/71 63/82/70 61/80/68 60/81/69
f 64/85/73 65/84/72 63/82/70 62/83/71
f 66/89/75 67/88/74 65/87/72 64/86/73
f 55/70/60 54/71/61 67/88/74 66/89/75
f 53/72/62 68/91/77 69/90/76 54/71/61
f 57/74/64 70/92/78 68/91/77 53/72/62
f 59/78/66 71/94/79 70/93/78 57/77/64
f 61/80/68 72/95/80 71/94/79 59/78/66
f 63/82/70 73/96/81 72/95/80 61/80/68
f 65/84/72 74/97/82 73/96/81 63/82/70
f 67/88/74 75/99/83 74/98/82 65/87/72
f 54/71/61 69/90/76 75/99/83 67/88/74
f 52/73/63 55/70/60 76/100/84
f 77/101/85 69/90/76 68/91/77
f 56/75/65 52/73/63 76/100/84
f 77/101/85 68/91/77 70/92/78
f 58/79/67 56/76/65 76/102/84
f 77/103/85 70/93/78 71/94/79
f 60/81/69 58/79/67 76/102/84
f 77/103/85 71/94/79 72/95/80
f 62/83/71 60/81/69 76/102/84
f 77/103/85 72/95/80 73/96/81
f 64/85/73 62/83/71 76/102/84
f 77/103/85 73/96/81 74/97/82
f 66/89/75 64/86/73 76/100/84
f 77/101/85 74/98/82 75/99/83
f 55/70/60 66/89/75 76/100/84
f 77/101/85 75/99/83 69/90/76
f 78/107/89 79/106/88 80/105/22 81/104/87
f 82/109/91 83/108/90 79/106/88 78/107/89
f 84/113/93 85/112/92 83/111/90 82/110/91
f 86/115/94 87/114/25 85/112/92 84/113/93
f 88/117/96 89/116/95 87/114/25 86/115/94
f 90/119/98 91/118/97 89/116/95 88/117/96
f 92/123/100 93/122/99 91/121/97 90/120/98
f 81/104/87 80/105/22 93/122/99 92/123/100
f 79/106/88 94/125/102 95/124/101 80/105/22
f 83/108/90 96/126/103 94/125/102 79/106/88
f 85/112/92 97/128/104 96/127/103 83/111/90
f 87/114/25 98/129/105 97/128/104 85/112/92
f 89/116/95 99/130/106 98/129/105 87/114/25
f 91/118/97 100/131/107 99/130/106 89/116/95
f 93/122/99 101/133/108 100/132/107 91/121/97
f 80/105/22 95/124/101 101/133/108 93/122/99
f 78/107/89 81/104/87 102/134/109
f 103/135/110 95/124/101 94/125/102
f 82/109/91 78/107/89 102/134/109
f 103/135/110 94/125/102 96/126/103
f 84/113/93 82/110/91 102/136/109
f 103/137/110 96/127/103 97/128/104
f 86/115/94 84/113/93 102/136/109
f 103/137/110 97/128/104 98/129/105
f 88/117/96 86/115/94 102/136/109
f 103/137/110 98/129/105 99/130/106
f 90/119/98 88/117/96 102/136/109
f 103/137/110 99/130/106 100/131/107
f 92/123/100 90/120/98 102/134/109
f 103/135/110 100/132/107 101/133/108
f 81/104/87 92/123/100 102/134/109
f 103/135/110 101/133/108 95/124/101
f 104/23/20 25/34/28 24/35/22 23/25/7
f 22/21/18 21/33/27 25/34/28 104/23/20
f 20/18/16 19/31/26 21/33/27 22/21/18
f 18/19/14 17/32/25 19/31/26 20/18/16
f 16/11/12 15/29/24 17/30/25 18/13/14

