# Blender v2.93.4 OBJ File: 'Note.blend'
# www.blender.org
mtllib Note.mtl
o Plane
v -0.622727 0.000000 1.000000
v 0.622727 0.000000 1.000000
v -0.622727 0.237797 -1.000000
v 0.622727 0.076985 -1.000000
v -0.622727 0.000000 -0.275700
v 0.622727 0.000000 -0.459699
vt 0.992968 0.371307
vt 0.000000 0.280540
vt 0.000159 0.009620
vt 0.994854 0.000000
vt 0.994854 1.000000
vt 0.002159 0.999911
vn 0.0802 0.9673 0.2408
vn 0.0000 1.0000 0.0000
usemtl None
s off
f 5/1/1 6/2/1 4/3/1 3/4/1
f 1/5/2 2/6/2 6/2/2 5/1/2
