# Blender v2.93.4 OBJ File: ''
# www.blender.org
mtllib MurenA.mtl
o Wall_1.1
v 145.281601 183.093567 -172.436737
v 145.281601 183.507767 -192.436646
v 145.281601 139.953354 -192.451675
v 145.281601 140.353760 -172.451569
v 144.143997 185.531967 -172.435944
v 144.143997 185.946167 -192.435745
v 144.143997 137.514954 -192.452469
v 144.143997 137.915359 -172.452362
v 141.436996 187.337769 -172.435242
v 141.436996 187.751968 -192.435135
v 137.781601 188.096664 -172.435043
v 137.781601 188.510864 -192.434845
v -74.615837 188.510864 -192.434845
v -74.615837 188.096664 -172.435043
v 141.436996 135.709167 -192.453171
v 141.436996 136.109558 -172.452972
v 137.781601 134.950256 -192.453369
v 137.781601 135.350662 -172.453262
v -74.615837 134.950256 -192.453369
v -74.615837 135.350662 -172.453262
v -78.271210 187.337769 -172.435242
v -78.271210 187.751968 -192.435135
v -78.271210 135.709167 -192.453171
v -78.271210 136.109558 -172.452972
v -80.978233 185.531967 -172.435944
v -80.978233 185.946167 -192.435745
v -80.978233 137.514954 -192.452469
v -80.978233 137.915359 -172.452362
v -82.115829 183.093567 -172.436737
v -82.115829 183.507767 -192.436646
v -82.115829 139.953354 -192.451675
v -82.115829 140.353760 -172.451569
vt 0.745281 0.334691
vt 0.769430 0.334276
vt 0.769263 0.386863
vt 0.745117 0.386295
vt 0.745285 0.331443
vt 0.769434 0.331027
vt 0.769247 0.390112
vt 0.745100 0.389543
vt 0.745261 0.327514
vt 0.769411 0.327098
vt 0.745203 0.323007
vt 0.769352 0.322591
vt 0.764943 0.066184
vt 0.740794 0.066599
vt 0.769198 0.394040
vt 0.745052 0.393472
vt 0.769111 0.398547
vt 0.744965 0.397979
vt 0.763076 0.654922
vt 0.738930 0.654353
vt 0.740698 0.062092
vt 0.764847 0.061677
vt 0.762952 0.659427
vt 0.738806 0.658859
vt 0.740586 0.058165
vt 0.764735 0.057750
vt 0.762815 0.663354
vt 0.738669 0.662786
vt 0.740470 0.054918
vt 0.764619 0.054503
vt 0.762678 0.666600
vt 0.738532 0.666031
vt 0.762645 0.001953
vt 0.738532 0.003351
vn -0.9763 -0.2164 -0.0045
vn -0.9763 -0.2166 -0.0045
vn -0.9763 0.2164 -0.0042
vn -0.9763 0.2165 -0.0043
vn -0.7586 -0.6514 -0.0135
vn -0.7586 0.6514 -0.0131
vn -0.7586 0.6514 -0.0130
vn -0.3864 -0.9222 -0.0191
vn -0.3861 -0.9223 -0.0191
vn -0.1023 -0.9945 -0.0206
vn -0.1020 -0.9946 -0.0206
vn 0.1020 -0.9946 -0.0206
vn 0.1023 -0.9945 -0.0206
vn -0.3860 0.9223 -0.0185
vn -0.3862 0.9222 -0.0185
vn -0.1020 0.9946 -0.0199
vn -0.1023 0.9946 -0.0199
vn 0.1020 0.9946 -0.0199
vn 0.1023 0.9946 -0.0199
vn 0.3863 -0.9222 -0.0191
vn 0.3860 -0.9223 -0.0191
vn 0.3860 0.9223 -0.0185
vn 0.3862 0.9223 -0.0185
vn 0.7586 -0.6514 -0.0135
vn 0.7586 0.6514 -0.0130
vn 0.7586 0.6514 -0.0129
vn 0.9763 -0.2164 -0.0045
vn 0.9763 -0.2165 -0.0045
vn 0.9763 0.2165 -0.0043
vn 0.9763 0.2165 -0.0042
usemtl M_Basic_1
s 1
f 1/1/1 2/2/2 3/3/3 4/4/4
f 2/2/2 1/1/1 5/5/5 6/6/5
f 3/3/3 7/7/6 8/8/7 4/4/4
f 6/6/5 5/5/5 9/9/8 10/10/9
f 10/10/9 9/9/8 11/11/10 12/12/11
f 13/13/12 12/12/11 11/11/10 14/14/13
f 7/7/6 15/15/14 16/16/15 8/8/7
f 15/15/14 17/17/16 18/18/17 16/16/15
f 18/18/17 17/17/16 19/19/18 20/20/19
f 14/14/13 21/21/20 22/22/21 13/13/12
f 19/19/18 23/23/22 24/24/23 20/20/19
f 21/21/20 25/25/24 26/26/24 22/22/21
f 23/23/22 27/27/25 28/28/26 24/24/23
f 25/25/24 29/29/27 30/30/28 26/26/24
f 27/27/25 31/31/29 32/32/30 28/28/26
f 31/33/29 30/30/28 29/29/27 32/34/30
o Wall_3.1
v 300.000000 130.414505 -42.310623
v 300.000000 129.919006 -39.128056
v 310.000000 129.919006 -39.128056
v 310.000000 130.414505 -42.310623
v 300.000000 129.857574 138.916534
v 310.000000 129.857574 138.916534
v 300.000000 131.766006 -44.640095
v 310.000000 131.766006 -44.640095
v 300.000000 131.700638 144.429825
v 300.000000 133.545441 145.283325
v 310.000000 133.545441 145.283325
v 310.000000 131.700638 144.429825
v 300.000000 163.010544 144.440659
v 310.000000 163.010544 144.440659
v 310.000000 161.165146 145.292862
v 300.000000 161.165146 145.292862
v 300.000000 183.611298 -45.474998
v 310.000000 183.611298 -45.474998
v 310.000000 211.231094 -45.465450
v 300.000000 211.231094 -45.465450
v 300.000000 181.766006 -44.622818
v 310.000000 181.766006 -44.622818
v 310.000000 213.075806 -44.612000
v 300.000000 213.075806 -44.612000
v 300.000000 180.414505 -42.293350
v 310.000000 180.414505 -42.293350
v 300.000000 179.919006 -39.110779
v 310.000000 179.919006 -39.110779
v 310.000000 179.857574 138.933868
v 300.000000 179.857574 138.933868
v 310.000000 214.425705 -42.281601
v 300.000000 214.425705 -42.281601
v 310.000000 214.919006 -39.098690
v 300.000000 214.919006 -39.098690
v 310.000000 214.857574 138.945969
v 300.000000 214.857574 138.945969
v 300.000000 180.350739 142.116760
v 310.000000 180.350739 142.116760
v 310.000000 214.362045 142.128464
v 300.000000 214.362045 142.128464
v 300.000000 181.700638 144.447159
v 310.000000 181.700638 144.447159
v 310.000000 213.010544 144.457962
v 300.000000 213.010544 144.457962
v 300.000000 183.545441 145.300659
v 310.000000 183.545441 145.300659
v 310.000000 211.165146 145.310165
v 300.000000 211.165146 145.310165
v 300.000000 161.231094 -45.482727
v 300.000000 133.611298 -45.492264
v 310.000000 133.611298 -45.492264
v 310.000000 161.231094 -45.482727
v 310.000000 163.075806 -44.629276
v 300.000000 163.075806 -44.629276
v 300.000000 130.350739 142.099426
v 310.000000 130.350739 142.099426
v 300.000000 164.857468 138.928665
v 310.000000 164.857468 138.928665
v 310.000000 164.362045 142.111267
v 300.000000 164.362045 142.111267
v 300.000000 164.919006 -39.115967
v 310.000000 164.919006 -39.115967
v 310.000000 164.425705 -42.298878
v 300.000000 164.425705 -42.298878
vt 0.811760 0.230405
vt 0.811760 0.226517
vt 0.823833 0.226517
vt 0.823833 0.230405
vt 0.811760 0.011548
vt 0.823833 0.011548
vt 0.811760 0.233657
vt 0.823833 0.233657
vt 0.811760 0.004407
vt 0.811760 0.001953
vt 0.823833 0.001953
vt 0.823833 0.004407
vt 0.811760 0.501163
vt 0.823833 0.501163
vt 0.823833 0.503617
vt 0.811760 0.503617
vt 0.823833 0.536964
vt 0.811760 0.536964
vt 0.828990 0.236111
vt 0.841063 0.236111
vt 0.841063 0.269459
vt 0.828990 0.269459
vt 0.828990 0.233657
vt 0.841063 0.233657
vt 0.841063 0.271913
vt 0.828990 0.271913
vt 0.828990 0.230405
vt 0.841063 0.230405
vt 0.828990 0.226516
vt 0.841063 0.226516
vt 0.841063 0.011548
vt 0.828990 0.011548
vt 0.841063 0.275165
vt 0.828990 0.275165
vt 0.841063 0.279054
vt 0.828990 0.279054
vt 0.841063 0.494022
vt 0.828990 0.494022
vt 0.828990 0.007659
vt 0.841063 0.007659
vt 0.841063 0.497911
vt 0.828990 0.497911
vt 0.828990 0.004407
vt 0.841063 0.004407
vt 0.841063 0.501163
vt 0.828990 0.501163
vt 0.828990 0.001953
vt 0.841063 0.001953
vt 0.841063 0.503617
vt 0.828990 0.503617
vt 0.841063 0.536964
vt 0.828990 0.536964
vt 0.811760 0.269459
vt 0.811760 0.236111
vt 0.823833 0.236111
vt 0.823833 0.269459
vt 0.823833 0.271913
vt 0.811760 0.271913
vt 0.811760 0.007659
vt 0.823833 0.007659
vt 0.811760 0.494022
vt 0.823833 0.494022
vt 0.823833 0.497911
vt 0.811760 0.497911
vt 0.811760 0.279054
vt 0.823833 0.279054
vt 0.823833 0.275165
vt 0.811760 0.275165
vn 0.0000 0.9427 0.3336
vn 0.0000 0.9970 0.0773
vn 0.0000 0.9971 -0.0766
vn 0.0000 0.6734 0.7392
vn 0.0000 0.6740 -0.7388
vn 0.0000 0.2151 -0.9766
vn 0.0000 -0.6734 -0.7392
vn 0.0000 -0.2145 -0.9767
vn 0.0000 0.2145 0.9767
vn 0.0000 -0.2151 0.9766
vn 0.0000 -0.6740 0.7388
vn 0.0000 -0.9430 0.3329
vn 0.0000 -0.9971 0.0766
vn 0.0000 -0.9970 -0.0773
vn 0.0000 0.9430 -0.3329
vn 0.0000 -0.9427 -0.3336
usemtl M_Basic_1
s 1
f 33/35/31 34/36/32 35/37/32 36/38/31
f 35/37/32 34/36/32 37/39/33 38/40/33
f 39/41/34 33/35/31 36/38/31 40/42/34
f 41/43/35 42/44/36 43/45/36 44/46/35
f 45/47/37 46/48/37 47/49/38 48/50/38
f 43/51/36 42/52/36 48/50/38 47/49/38
f 49/53/39 50/54/39 51/55/40 52/56/40
f 50/54/39 49/53/39 53/57/34 54/58/34
f 51/55/40 55/59/41 56/60/41 52/56/40
f 54/58/34 53/57/34 57/61/31 58/62/31
f 58/62/31 57/61/31 59/63/32 60/64/32
f 61/65/33 60/64/32 59/63/32 62/66/33
f 55/59/41 63/67/42 64/68/42 56/60/41
f 63/67/42 65/69/43 66/70/43 64/68/42
f 66/70/43 65/69/43 67/71/44 68/72/44
f 61/65/33 62/66/33 69/73/45 70/74/45
f 68/72/44 67/71/44 71/75/46 72/76/46
f 70/74/45 69/73/45 73/77/35 74/78/35
f 72/76/46 71/75/46 75/79/37 76/80/37
f 74/78/35 73/77/35 77/81/36 78/82/36
f 76/80/37 75/79/37 79/83/38 80/84/38
f 79/83/38 78/85/36 77/86/36 80/84/38
f 81/87/40 82/88/39 83/89/39 84/90/40
f 82/88/39 39/41/34 40/42/34 83/89/39
f 84/90/40 85/91/41 86/92/41 81/87/40
f 87/93/45 41/43/35 44/46/35 88/94/45
f 89/95/44 90/96/44 91/97/46 92/98/46
f 92/98/46 91/97/46 46/48/37 45/47/37
f 89/95/44 93/99/43 94/100/43 90/96/44
f 85/91/41 95/101/42 96/102/42 86/92/41
f 37/39/33 87/93/45 88/94/45 38/40/33
f 95/101/42 94/100/43 93/99/43 96/102/42
