# Blender v2.93.4 OBJ File: ''
# www.blender.org
mtllib FlippedNormalsWall01.mtl
o Wall_1
v 320.000000 297.615631 -172.397156
v 144.143997 185.531937 -172.435974
v 145.281601 183.093536 -172.436768
v -195.000000 0.059594 -172.500000
v -82.115829 140.353729 -172.451584
v -82.115829 183.093536 -172.436768
v -195.000000 297.615631 -172.397156
v -80.978233 137.915329 -172.452377
v -78.271210 136.109528 -172.452988
v 145.281601 140.353729 -172.451584
v 320.000000 0.059594 -172.500000
v -74.615837 135.350632 -172.453278
v -74.615837 188.096634 -172.435074
v 137.781601 188.096634 -172.435074
v 144.143997 137.915329 -172.452377
v 141.436996 136.109528 -172.452988
v 137.781601 135.350632 -172.453278
v 141.436996 187.337738 -172.435272
v -80.978233 185.531937 -172.435974
v -78.271210 187.337738 -172.435272
vt 0.001953 0.583074
vt 0.131179 0.385924
vt 0.128427 0.384640
vt 0.337713 0.001953
vt 0.001953 0.001953
vt 0.131179 0.129331
vt 0.179406 0.129331
vt 0.182157 0.130614
vt 0.184195 0.133669
vt 0.337713 0.583074
vt 0.179406 0.385924
vt 0.185051 0.137793
vt 0.125533 0.377461
vt 0.125533 0.137793
vt 0.182157 0.384640
vt 0.184195 0.381585
vt 0.185051 0.377461
vt 0.126390 0.381585
vt 0.128427 0.130614
vt 0.126390 0.133669
vn 0.0000 0.0003 -1.0000
vn -0.0000 0.0004 -1.0000
usemtl M_Basic_1.003
s 1
f 1/1/1 3/2/1 2/3/2
f 4/4/1 7/5/1 6/6/1 5/7/1
f 4/4/1 5/7/1 8/8/1
f 4/4/1 8/8/1 9/9/1
f 1/1/1 11/10/1 10/11/1 3/2/1
f 12/12/1 4/4/1 9/9/1
f 1/1/1 14/13/1 13/14/1 7/5/1
f 15/15/1 10/11/1 11/10/1
f 16/16/1 15/15/1 11/10/1
f 17/17/1 16/16/1 11/10/1
f 12/12/1 17/17/1 11/10/1 4/4/1
f 18/18/1 14/13/1 1/1/1
f 7/5/1 19/19/1 6/6/1
f 20/20/1 7/5/1 13/14/1
f 7/5/1 20/20/1 19/19/1
f 2/3/2 18/18/1 1/1/1
o Wall_3
v 300.000000 172.354263 148.479431
v 300.000000 180.350769 142.116730
v 300.000000 179.857590 138.933838
v 300.000000 181.700668 144.447128
v 300.000000 183.545471 145.300629
v 300.000000 297.619019 -182.397156
v 300.000000 214.919006 -39.098686
v 300.000000 214.857590 138.945938
v 300.000000 297.492981 182.602844
v 300.000000 172.422318 -48.661602
v 300.000000 183.611298 -45.474998
v 300.000000 211.231094 -45.465446
v 300.000000 0.063049 -182.500000
v 300.000000 213.075806 -44.611996
v 300.000000 164.362076 142.111237
v 300.000000 164.857483 138.928635
v 300.000000 214.425705 -42.281605
v 300.000000 164.919006 -39.115963
v 300.000000 179.919006 -39.110779
v 300.000000 214.362076 142.128433
v 300.000000 213.010574 144.457932
v 300.000000 211.165176 145.310135
v 300.000000 -0.063049 182.500000
v 300.000000 163.010574 144.440628
v 300.000000 161.165176 145.292831
v 300.000000 133.545471 145.283310
v 300.000000 131.700668 144.429810
v 300.000000 130.350769 142.099411
v 300.000000 129.857590 138.916519
v 300.000000 129.919006 -39.128056
v 300.000000 180.414505 -42.293350
v 300.000000 181.766006 -44.622818
v 300.000000 164.425705 -42.298874
v 300.000000 163.075806 -44.629272
v 300.000000 161.231094 -45.482723
v 300.000000 133.611298 -45.492268
v 300.000000 130.414505 -42.310627
v 300.000000 131.766006 -44.640099
vt 0.143172 0.959591
vt 0.134709 0.948817
vt 0.134151 0.952408
vt 0.132627 0.955037
vt 0.130545 0.956000
vt 0.001953 0.586184
vt 0.001953 0.998047
vt 0.095215 0.948817
vt 0.095215 0.747913
vt 0.099379 0.740730
vt 0.130545 0.740730
vt 0.143172 0.737139
vt 0.337713 0.586184
vt 0.097297 0.741693
vt 0.152193 0.952408
vt 0.151635 0.948817
vt 0.095773 0.744322
vt 0.151635 0.747913
vt 0.134709 0.747913
vt 0.095773 0.952408
vt 0.097297 0.955037
vt 0.099379 0.956000
vt 0.337713 0.998047
vt 0.153717 0.955037
vt 0.155799 0.956000
vt 0.186965 0.956000
vt 0.189046 0.955037
vt 0.190571 0.952408
vt 0.191128 0.948817
vt 0.191128 0.747913
vt 0.134151 0.744322
vt 0.132627 0.741693
vt 0.152193 0.744322
vt 0.153717 0.741693
vt 0.155799 0.740730
vt 0.186965 0.740730
vt 0.190571 0.744322
vt 0.189046 0.741693
vn 1.0000 -0.0000 0.0000
usemtl M_Basic_1.003
s 1
f 21/21/3 23/22/3 22/23/3
f 21/21/3 22/23/3 24/24/3
f 25/25/3 21/21/3 24/24/3
f 26/26/3 29/27/3 28/28/3 27/29/3
f 26/26/3 32/30/3 31/31/3 30/32/3
f 30/32/3 33/33/3 26/26/3
f 34/34/3 32/30/3 26/26/3
f 35/35/3 36/36/3 23/22/3 21/21/3
f 37/37/3 34/34/3 26/26/3
f 26/26/3 27/29/3 37/37/3
f 38/38/3 39/39/3 23/22/3 36/36/3
f 40/40/3 28/28/3 29/27/3
f 41/41/3 40/40/3 29/27/3
f 25/25/3 42/42/3 29/27/3 21/21/3
f 41/41/3 29/27/3 42/42/3
f 21/21/3 29/27/3 43/43/3
f 44/44/3 35/35/3 21/21/3
f 45/45/3 44/44/3 21/21/3
f 46/46/3 45/45/3 21/21/3 43/43/3
f 46/46/3 43/43/3 47/47/3
f 43/43/3 48/48/3 47/47/3
f 43/43/3 49/49/3 48/48/3
f 43/43/3 33/33/3 50/50/3 49/49/3
f 38/38/3 30/32/3 39/39/3
f 51/51/3 39/39/3 30/32/3
f 30/32/3 52/52/3 51/51/3
f 30/32/3 31/31/3 52/52/3
f 30/32/3 38/38/3 53/53/3
f 53/53/3 54/54/3 30/32/3
f 54/54/3 55/55/3 30/32/3
f 30/32/3 55/55/3 56/56/3 33/33/3
f 33/33/3 57/57/3 50/50/3
f 33/33/3 58/58/3 57/57/3
f 33/33/3 56/56/3 58/58/3
