#File written by LIBRIZOMUV. Compilation :Dec 13 2019,23:12:04
mtllib :/boekenplankjes:mtl
#begin vertices
v 175.6974 179.713 -178.6071
v 175.6974 186.6904 -178.6071
v 175.6974 186.6904 -142.4655
v 175.6974 179.713 -142.4655
v 175.8383 179.5721 -178.748
v 175.8383 179.5721 -142.4655
v 287.5493 179.5721 -142.4655
v 287.5493 179.5721 -178.748
v 175.8383 179.713 -142.3245
v 175.8383 186.6904 -142.3245
v 287.5493 186.6904 -142.3245
v 287.5493 179.713 -142.3245
v 175.8383 186.8314 -142.4655
v 175.8383 186.8314 -178.748
v 287.5493 186.8314 -178.748
v 287.5493 186.8314 -142.4655
v 287.6903 179.713 -142.4655
v 287.6903 186.6904 -142.4655
v 287.6903 186.6904 -178.6071
v 287.6903 179.713 -178.6071
v 175.7386 186.7901 -178.7067
v 175.7386 186.7901 -142.4655
v 175.7539 186.7748 -142.3811
v 175.7539 179.6286 -142.3811
v 287.6338 179.6286 -142.3811
v 287.5493 186.7901 -142.3658
v 287.6338 186.7748 -142.3811
v 175.7386 179.6133 -178.7067
v 175.8383 186.7901 -142.3658
v 175.7386 186.6904 -142.3658
v 175.7386 179.713 -142.3658
v 175.8383 179.6133 -142.3658
v 175.7386 179.6133 -142.4655
v 287.5493 179.6133 -142.3658
v 287.649 179.713 -142.3658
v 287.649 179.6133 -142.4655
v 287.649 179.6133 -178.7067
v 287.649 186.7901 -142.4655
v 287.649 186.6904 -142.3658
v 287.649 186.7901 -178.7067
v 175.6974 136.8121 -178.6071
v 175.6974 143.7896 -178.6071
v 175.6974 143.7896 -142.4655
v 175.6974 136.8121 -142.4655
v 175.8383 136.6712 -178.748
v 175.8383 136.6712 -142.4655
v 287.5493 136.6712 -142.4655
v 287.5493 136.6712 -178.748
v 175.8383 136.8121 -142.3245
v 175.8383 143.7896 -142.3245
v 287.5493 143.7896 -142.3245
v 287.5493 136.8121 -142.3245
v 175.8383 143.9305 -142.4655
v 175.8383 143.9305 -178.748
v 287.5493 143.9305 -178.748
v 287.5493 143.9305 -142.4655
v 287.6903 136.8121 -142.4655
v 287.6903 143.7896 -142.4655
v 287.6903 143.7896 -178.6071
v 287.6903 136.8121 -178.6071
v 175.7386 143.8892 -178.7067
v 175.7386 143.8892 -142.4655
v 175.7539 143.874 -142.3811
v 175.7539 136.7277 -142.3811
v 287.6338 136.7277 -142.3811
v 287.5493 143.8892 -142.3658
v 287.6338 143.874 -142.3811
v 175.7386 136.7125 -178.7067
v 175.8383 143.8892 -142.3658
v 175.7386 143.7896 -142.3658
v 175.7386 136.8121 -142.3658
v 175.8383 136.7125 -142.3658
v 175.7386 136.7125 -142.4655
v 287.5493 136.7125 -142.3658
v 287.649 136.8121 -142.3658
v 287.649 136.7125 -142.4655
v 287.649 136.7125 -178.7067
v 287.649 143.8892 -142.4655
v 287.649 143.7896 -142.3658
v 287.649 143.8892 -178.7067
#end vertices

#begin 100 textures vertices 
vt 0.04605699 0.5024844 0
vt 0.002792276 0.5024542 0
vt 0.002621945 0.7265563 0
vt 0.04588557 0.7265868 0
vt 0.04739556 0.5016113 0
vt 0.04722205 0.7265861 0
vt 0.7398934 0.7271344 0
vt 0.7400795 0.5021629 0
vt 0.04722042 0.7279235 0
vt 0.04718599 0.7711878 0
vt 0.7398592 0.771736 0
vt 0.739893 0.7284719 0
vt 0.04718493 0.7725254 0
vt 0.04700687 0.9974988 0
vt 0.7396817 0.9980469 0
vt 0.7398582 0.7730735 0
vt 0.7412299 0.7271374 0
vt 0.7844933 0.7271778 0
vt 0.7846817 0.5030769 0
vt 0.7414168 0.5030381 0
vt 0.002123832 0.5018357 0
vt 0.04651608 0.7725238 0
vt 0.04662041 0.7718574 0
vt 0.04658927 0.7272188 0
vt 0.7405253 0.7277682 0
vt 0.7398587 0.7724048 0
vt 0.7404238 0.7724065 0
vt 0.04672639 0.5018668 0
vt 0.04718544 0.7718566 0
vt 0.002619845 0.7272247 0
vt 0.04589066 0.7272559 0
vt 0.04722107 0.7272548 0
vt 0.04655385 0.7265869 0
vt 0.7398934 0.7278031 0
vt 0.7412237 0.7278064 0
vt 0.7405616 0.7271364 0
vt 0.7407483 0.5024195 0
vt 0.740527 0.773073 0
vt 0.7844943 0.7278463 0
vt 0.7403508 0.9977914 0
vt 0.04605699 0.002826231 0
vt 0.002792277 0.002795994 0
vt 0.002621945 0.2268981 0
vt 0.04588557 0.2269286 0
vt 0.04739561 0.001953125 0
vt 0.0472221 0.2269279 0
vt 0.7398935 0.2274763 0
vt 0.7400796 0.002504692 0
vt 0.04722047 0.2282654 0
vt 0.04718604 0.2715296 0
vt 0.7398593 0.2720778 0
vt 0.739893 0.2288138 0
vt 0.04718498 0.2728672 0
vt 0.04700692 0.4978407 0
vt 0.7396817 0.4983887 0
vt 0.7398582 0.2734154 0
vt 0.7412301 0.2274792 0
vt 0.7844934 0.2275197 0
vt 0.7846818 0.003418768 0
vt 0.7414169 0.00337992 0
vt 0.002123834 0.002177498 0
vt 0.04651617 0.2728656 0
vt 0.04662046 0.2721992 0
vt 0.04658935 0.2275606 0
vt 0.7405253 0.22811 0
vt 0.7398587 0.2727466 0
vt 0.7404239 0.2727483 0
vt 0.04672648 0.002208678 0
vt 0.0471855 0.2721984 0
vt 0.002619845 0.2275665 0
vt 0.04589066 0.2275977 0
vt 0.04722112 0.2275966 0
vt 0.04655394 0.2269288 0
vt 0.7398934 0.2281449 0
vt 0.7412238 0.2281483 0
vt 0.7405617 0.2274782 0
vt 0.7407483 0.002761308 0
vt 0.740527 0.2734149 0
vt 0.7844944 0.2281882 0
vt 0.7403508 0.4981332 0
vt 0.04655135 0.7279175 0
vt 0.7851622 0.7271788 0
vt 0.001953125 0.7265561 0
vt 0.04651748 0.7711924 0
vt 0.7853512 0.5024595 0
vt 0.04633812 0.9972423 0
vt 0.7405621 0.7284669 0
vt 0.7405276 0.7717417 0
vt 0.7850581 0.7277425 0
vt 0.002056228 0.7271199 0
vt 0.002056321 0.2274618 0
vt 0.7405277 0.2720836 0
vt 0.0465514 0.2282594 0
vt 0.001953125 0.226898 0
vt 0.04651753 0.2715343 0
vt 0.7850581 0.2280843 0
vt 0.7405622 0.2288088 0
vt 0.04633821 0.4975841 0
vt 0.7851623 0.2275206 0
vt 0.7853513 0.00280136 0
#end 100 textures vertices 

#begin 124 normals 
vn -0.1769332 -0.1769332 0.9681887
vn -0.1769254 0.1769288 0.9681909
vn 0.176921 0.176921 0.9681931
vn 0.1769288 -0.1769254 0.9681909
vn 0.9681953 -0.1769151 0.1769151
vn 0.9681975 0.1769107 0.1769073
vn 0.9807807 0.1951132 0
vn 0.9807807 -0.1951132 0
vn -0.1951132 -0.9807807 0
vn -0.1769332 -0.9681887 0.1769332
vn 0.1769288 -0.9681909 0.1769254
vn 0.1951132 -0.9807807 0
vn -0.9807935 -0.1950491 0
vn -0.9807853 0.1950903 0
vn -0.9682059 0.1768979 0.1768744
vn -0.9682076 -0.1768814 0.1768814
vn -0.1769151 0.9681953 0.1769151
vn -0.1951132 0.9807807 0
vn 0.1951132 0.9807807 0
vn 0.1769107 0.9681975 0.1769073
vn -0.9252701 0.1532691 0.3469636
vn -0.9252632 -0.1532772 0.3469786
vn -0.1532969 0.347067 0.9252267
vn 0.1532889 0.3470521 0.9252337
vn 0.9252399 -0.1532775 0.3470404
vn 0.9252468 0.1532695 0.3470255
vn 0.1533039 -0.3470607 0.9252279
vn -0.1533119 -0.3470757 0.925221
vn 0.3827266 0.9238617 0
vn 0.3470319 0.9252456 0.1532625
vn 0.347067 -0.9252267 0.1532969
vn 0.3827266 -0.9238617 0
vn -0.3827266 -0.9238617 0
vn -0.3470757 -0.925221 0.1533119
vn -0.3470405 0.9252399 0.1532775
vn -0.3827266 0.9238617 0
vn -0.3027585 0.9037005 0.3027585
vn -0.1532775 0.9252399 0.3470405
vn -0.3028252 -0.3028252 0.9036558
vn -0.3470757 -0.1533119 0.925221
vn 0.3028095 -0.3027961 0.9036708
vn 0.347067 -0.1532969 0.9252267
vn 0.3027428 0.9037155 0.3027294
vn 0.1532695 0.9252468 0.3470255
vn -0.3027961 0.3028095 0.9036708
vn -0.3470607 0.1533039 0.9252279
vn -0.9037155 0.3027428 0.3027294
vn -0.9252539 0.3470098 0.1532624
vn -0.3028252 -0.9036558 0.3028252
vn -0.1533119 -0.925221 0.3470757
vn -0.9037005 -0.3027585 0.3027585
vn -0.9252632 -0.3469786 0.1532772
vn 0.9037005 -0.3027585 0.3027585
vn 0.9252399 -0.3470405 0.1532775
vn 0.3028095 -0.9036708 0.3027961
vn 0.1533039 -0.9252279 0.3470607
vn 0.9037155 0.3027428 0.3027294
vn 0.9252456 0.3470319 0.1532625
vn 0.3027804 0.3027804 0.9036858
vn 0.3470521 0.1532889 0.9252337
vn 0.9238617 0.3827265 0
vn 0.9238617 -0.3827265 0
vn -0.9239117 -0.3826058 0
vn -0.9238795 0.3826834 0
vn -0.1769322 -0.1769081 0.9681934
vn -0.1769332 0.1769332 0.9681887
vn 0.1769288 0.1769254 0.9681909
vn 0.1769278 -0.1769003 0.9681957
vn 0.9682 -0.17689 0.1769141
vn 0.9681953 0.176915 0.176915
vn 0.980786 -0.1950867 0
vn -0.1950491 -0.9807935 0
vn -0.1768814 -0.9682076 0.1768814
vn 0.1768771 -0.9682098 0.1768736
vn 0.1950491 -0.9807935 0
vn -0.9807988 -0.1950226 0
vn -0.9682036 0.1769022 0.1768822
vn -0.9682124 -0.1768563 0.1768804
vn -0.1768814 0.9682076 0.1768814
vn -0.1950491 0.9807935 0
vn 0.1950491 0.9807935 0
vn 0.1768771 0.9682098 0.1768736
vn -0.9252632 0.1532772 0.3469786
vn -0.9252675 -0.1532544 0.3469771
vn -0.1533119 0.3470757 0.925221
vn 0.1533039 0.3470607 0.9252279
vn 0.9252443 -0.1532547 0.347039
vn 0.9252399 0.1532775 0.3470404
vn 0.1533035 -0.3470131 0.9252459
vn -0.1533116 -0.347028 0.925239
vn 0.3826059 0.9239117 0
vn 0.34697 0.9252689 0.1532622
vn 0.34697 -0.9252689 0.1532622
vn 0.3826058 -0.9239117 0
vn -0.3826059 -0.9239117 0
vn -0.3469786 -0.9252632 0.1532772
vn -0.3469786 0.9252632 0.1532772
vn -0.3826058 0.9239117 0
vn -0.3027585 0.9037005 0.3027585
vn -0.1532772 0.9252632 0.3469786
vn -0.3028245 -0.3027811 0.9036708
vn -0.3470741 -0.1532891 0.9252254
vn 0.3028088 -0.3027521 0.9036858
vn 0.3470655 -0.1532741 0.9252311
vn 0.3027428 0.9037155 0.3027294
vn 0.1532691 0.9252701 0.3469636
vn -0.3028252 0.3028252 0.9036558
vn -0.3470757 0.1533119 0.925221
vn -0.9037005 0.3027585 0.3027585
vn -0.9252482 0.3470184 0.1532774
vn -0.3027585 -0.9037005 0.3027585
vn -0.1532772 -0.9252632 0.3469786
vn -0.9037155 -0.3027144 0.3027578
vn -0.9252811 -0.3469309 0.1532768
vn 0.9037155 -0.3027145 0.3027578
vn 0.9252579 -0.3469929 0.1532772
vn 0.3027428 -0.9037155 0.3027294
vn 0.1532691 -0.9252701 0.3469636
vn 0.9037005 0.3027585 0.3027585
vn 0.9252399 0.3470405 0.1532775
vn 0.3028095 0.3027961 0.9036708
vn 0.347067 0.1532969 0.9252267
vn 0.9238824 -0.3826765 0
vn -0.9239324 -0.3825558 0
#end 124 normals 

#begin 66 faces
o Cube:1
usemtl default
f 12/12/4 11/11/3 10/10/2 9/9/1 
f 20/20/8 19/19/7 18/18/6 17/17/5 
f 8/8/12 7/7/11 6/6/10 5/5/9 
f 4/4/16 3/3/15 2/2/14 1/1/13 
f 16/16/20 15/15/19 14/14/18 13/13/17 
f 4/4/16 31/31/22 30/30/21 3/3/15 
f 11/11/3 26/26/24 29/29/23 10/10/2 
f 18/18/6 39/39/26 35/35/25 17/17/5 
f 9/9/1 32/32/28 34/34/27 12/12/4 
f 16/16/20 38/38/30 40/40/29 15/15/19 
f 8/8/12 37/37/32 36/36/31 7/7/11 
f 6/6/10 33/33/34 28/28/33 5/5/9 
f 14/14/18 21/86/36 22/22/35 13/13/17 
f 29/29/38 13/13/17 22/22/35 23/23/37 
f 32/32/28 9/9/1 31/81/40 24/24/39 
f 35/87/42 12/12/4 34/34/27 25/25/41 
f 38/38/30 16/16/20 26/26/44 27/27/43 
f 30/84/46 10/10/2 29/29/23 23/23/45 
f 22/83/48 3/3/15 30/30/21 23/90/47 
f 33/33/34 6/6/10 32/32/50 24/24/49 
f 31/31/22 4/4/16 33/33/52 24/24/51 
f 36/36/54 17/17/5 35/35/25 25/25/53 
f 34/34/56 7/7/11 36/36/31 25/25/55 
f 39/39/26 18/18/6 38/82/58 27/89/57 
f 26/26/24 11/11/3 39/88/60 27/27/59 
f 31/81/40 9/9/1 10/10/2 30/84/46 
f 26/26/44 16/16/20 13/13/17 29/29/38 
f 39/88/60 11/11/3 12/12/4 35/87/42 
f 32/32/50 6/6/10 7/7/11 34/34/56 
f 38/82/58 18/18/6 19/19/7 40/85/61 
f 37/37/62 20/20/8 17/17/5 36/36/54 
f 33/33/52 4/4/16 1/1/13 28/28/63 
f 21/21/64 2/2/14 3/3/15 22/83/48 
o Cube
usemtl default
f 52/52/68 51/51/67 50/50/66 49/49/65 
f 60/60/71 59/59/7 58/58/70 57/57/69 
f 48/48/75 47/47/74 46/46/73 45/45/72 
f 44/44/78 43/43/77 42/42/14 41/41/76 
f 56/56/82 55/55/81 54/54/80 53/53/79 
f 44/44/78 71/71/84 70/70/83 43/43/77 
f 51/51/67 66/66/86 69/69/85 50/50/66 
f 58/58/70 79/79/88 75/75/87 57/57/69 
f 49/49/65 72/72/90 74/74/89 52/52/68 
f 56/56/82 78/78/92 80/80/91 55/55/81 
f 48/48/75 77/77/94 76/76/93 47/47/74 
f 46/46/73 73/73/96 68/68/95 45/45/72 
f 54/54/80 61/98/98 62/62/97 53/53/79 
f 69/69/100 53/53/79 62/62/97 63/63/99 
f 72/72/90 49/49/65 71/93/102 64/64/101 
f 75/97/104 52/52/68 74/74/89 65/65/103 
f 78/78/92 56/56/82 66/66/106 67/67/105 
f 70/95/108 50/50/66 69/69/85 63/63/107 
f 62/94/110 43/43/77 70/70/83 63/91/109 
f 73/73/96 46/46/73 72/72/112 64/64/111 
f 71/71/84 44/44/78 73/73/114 64/64/113 
f 76/76/116 57/57/69 75/75/87 65/65/115 
f 74/74/118 47/47/74 76/76/93 65/65/117 
f 79/79/88 58/58/70 78/99/120 67/96/119 
f 66/66/86 51/51/67 79/92/122 67/67/121 
f 71/93/102 49/49/65 50/50/66 70/95/108 
f 66/66/106 56/56/82 53/53/79 69/69/100 
f 79/92/122 51/51/67 52/52/68 75/97/104 
f 72/72/112 46/46/73 47/47/74 74/74/118 
f 78/99/120 58/58/70 59/59/7 80/100/61 
f 77/77/123 60/60/71 57/57/69 76/76/116 
f 73/73/114 44/44/78 41/41/76 68/68/124 
f 61/61/64 42/42/14 43/43/77 62/94/110 
#end 66 faces

#begin properties
#ZOMPROPERTIES_02 table {Mesh table {Islands table {0 table {TopoStable table {Pack table {Rotate table {Max double 183.6 Min double 0 } } } PolyIDs ints { 0 25 14 19 11 31 3 32 18 5 20 2 10 22 21 30 1 7 23 29 15 8 28 17 13 26 16 9 24 27 4 12 6 } } 1 table {TopoStable table {Pack table {Rotate table {Max double 183.6 Min double 0 } } } PolyIDs ints { 33 58 47 52 61 55 54 63 34 40 56 62 43 35 48 44 64 36 65 51 38 53 41 50 46 45 37 42 49 57 60 59 39 } } } SymPlane table {Point vector3d 0 0 0 Normal vector3d 1 0 0 Threshold double 0.01 Enabled bool false EdgeID int -1 SymEdgeID int -1 UPos double 0.5 LocalMode bool false } RootGroup CSubMeshGroup {Children table {Tile_0_0 CSubMeshGroup {Children table {} BBoxUV box3d 0 0 0 0 0 0 BBox3D box3d 0 0 0 0 0 0 AreaUV double 0.7284036 Area3D double 0 IsRoot bool false TopoStable table {Selected bool false Box box3d 0 1 0 1 0 1 U int 0 V int 0 NU int 0 NV int 0 Tiling vector3d 1 1 1 TileRatioMode string "1:1" } IsTile bool true PolyIDs ints { 0 25 14 19 11 31 3 32 18 5 20 2 10 22 21 30 1 7 23 29 15 8 28 17 13 26 16 9 24 27 4 12 6 33 58 47 52 61 55 54 63 34 40 56 62 43 35 48 44 64 36 65 51 38 53 41 50 46 45 37 42 49 57 60 59 39 } } } BBoxUV box3d 0 0 0 0 0 0 BBox3D box3d 0 0 0 0 0 0 AreaUV double 0 Area3D double 0 IsRoot bool true TopoStable table {Selected bool false Box box3d 0 1 0 1 0 1 U int 0 V int 0 NU int 1 NV int 1 Tiling vector3d 1 1 1 TileRatioMode string "1:1" Pack table {Rotate table {Mode int 2 Min double 0 Max double 180 Step double 0 } SpacingSize double 0.00390625 MarginSize double 0.001953125 Resolution int 200 Scaling table {Mode int 0 } LayoutScalingMode int 2 MaxMutations int 1 } } IsTile bool false PolyIDs ints { } } Maps table {Density table {PrimType string "Polygon" Size int 1 DefaultValue double 1 ScaleType string "Log" Mergeode string "Average" MinValue double 0.1 MaxValue double 4 Data doubles { r 66 1 } } Pin table {PrimType string "Vertex" Size int 1 DefaultValue double 0 ScaleType string "Normalized" Mergeode string "Max" MinValue double 0 MaxValue double 1 Data doubles { r 100 0 } } Protect table {PrimType string "Vertex" Size int 1 DefaultValue double 0 ScaleType string "Normalized" Mergeode string "Average" MinValue double -1 MaxValue double 1 Data doubles { r 100 0 } } } } }
#end properties

#begin 0 fatal error vertex (that RizomUV cannot handle)
#end 0 fatal error vertex (that RizomUV cannot handle)

#begin 0 error vertex
#end 0 error vertex
