# Blender v2.93.4 OBJ File: ''
# www.blender.org
mtllib StandingDeskFlipped.mtl
o Standing_Desk
v -90.000008 94.530602 13.042915
v -190.000000 94.530594 41.970875
v -190.000000 94.084305 42.113544
v -90.000008 94.084312 13.185515
v -90.000008 90.000008 13.185514
v -190.000000 90.000000 42.113544
v 63.838879 90.000000 41.831467
v 63.824989 94.084305 41.829216
v 43.743191 52.452488 16.935547
v -90.000008 52.477539 3.541952
v -90.000008 51.723949 3.490833
v 43.661079 51.723946 16.823278
v -190.000000 94.861115 -38.665554
v -190.000000 95.000015 -38.217834
v -90.000008 95.000015 -58.358505
v -90.000008 94.861115 -58.806206
v 44.471458 51.723946 16.635698
v 44.558170 52.452366 16.746807
v 65.579437 90.000015 -37.435406
v 65.579437 94.084320 -37.421505
v 65.579437 94.084305 40.337906
v 65.579437 90.000000 40.353245
v 65.315437 90.000000 41.168396
v 65.313316 94.084305 41.160194
v 65.321564 90.000015 -38.278576
v 65.319511 94.084320 -38.271576
v 64.707909 90.000015 -38.926144
v 64.700981 94.084320 -38.924416
v 63.879280 90.000015 -39.229534
v 63.865780 94.084320 -39.230274
v 64.550369 94.530609 -38.789825
v 65.177147 94.530609 -38.128166
v 63.704041 94.530609 -39.099815
v 65.440559 94.530609 -37.266605
v 65.440559 94.530594 40.143425
v 64.205147 94.861115 -38.472805
v 64.842293 94.861115 -37.800076
v 65.110046 94.861115 -36.924114
v 63.344799 94.861115 -38.787964
v -90.000008 94.530609 -59.137733
v -90.000008 94.084320 -59.277065
v -190.000000 94.084320 -39.136444
v -190.000000 94.530609 -38.997116
v 65.110046 94.861099 39.709305
v 65.170212 94.530594 40.979374
v 64.526917 94.530594 41.526646
v 64.680077 94.084305 41.698456
v 64.687202 90.000000 41.701946
v 63.658241 94.530594 41.659676
v 64.833771 94.861099 40.564484
v 64.176323 94.861099 41.124405
v 64.663757 95.000015 -36.486526
v 64.663757 95.000000 39.157757
v 64.393837 95.000015 -37.369595
v 63.751579 95.000015 -38.047794
v 62.884312 95.000015 -38.365524
v 64.384438 95.000000 40.022816
v 62.822269 95.000000 40.727104
v 63.719769 95.000000 40.589256
v 63.288559 94.861099 41.260616
v -90.000008 94.861107 12.703606
v -90.000008 95.000008 12.245425
v -190.000000 95.000000 41.172955
v -190.000000 94.861099 41.631386
v 45.415699 52.452824 -19.302122
v 45.162540 52.452824 -20.118612
v 45.379120 53.242355 -20.309340
v 45.634392 53.242363 -19.486521
v 43.946789 53.241238 17.203400
v -90.000008 53.325859 3.663589
v 44.768700 53.240807 17.013109
v 45.633221 53.240425 15.626749
v 45.415352 52.452255 15.374888
v -90.000008 90.000015 -59.277065
v -190.000000 90.000015 -39.136444
v -190.000000 52.448215 17.075499
v -190.000000 51.723957 16.964848
v 45.669151 53.907806 16.797909
v 45.377399 53.240505 16.444040
v 45.927410 53.907627 15.970809
v -190.000000 53.226757 17.338789
v 44.224979 53.909225 17.565329
v -90.000008 54.074280 3.827841
v 45.054680 53.908386 17.373430
v 45.161709 52.452274 16.183508
v -190.000000 53.880955 17.694319
v 43.951408 53.242134 -21.208490
v 44.230652 53.910954 -21.475681
v 45.058750 53.911232 -21.195330
v 44.771679 53.242275 -20.930861
v -90.000008 -0.000002 13.185500
v -90.000008 44.865040 3.785500
v -190.000000 45.023445 17.625998
v -190.000000 -0.000007 42.113529
v 63.883350 -0.000006 41.838661
v 44.193130 44.999317 17.494627
v 45.009548 44.999996 17.306637
v 64.709999 -0.000006 41.712669
v 45.929691 53.911392 -19.737930
v 45.671989 53.911385 -20.568110
v 45.614182 45.000458 16.742558
v 65.322166 -0.000007 41.193310
v -90.000008 45.616051 3.641883
v -190.000000 45.697247 17.303768
v 45.868290 45.000595 15.931808
v 65.579437 -0.000007 40.399731
v 65.579437 0.000005 -37.476040
v 45.869961 44.997444 -19.713783
v 45.616871 44.997444 -20.529343
v 65.327454 0.000006 -38.299099
v 45.014591 44.997585 -21.145502
v 64.727852 0.000006 -38.931229
v 43.934978 45.684875 17.167528
v 44.747890 45.685226 16.979898
v -90.000008 46.466282 3.535528
v -190.000000 46.490307 17.065138
v -90.000008 53.212818 -36.138203
v -90.000008 53.853756 -36.460842
v 45.349911 45.685467 16.418537
v 43.744820 46.486637 16.925377
v 44.554619 46.486748 16.738167
v 45.154339 46.486805 16.179247
v 45.602909 45.685535 15.612227
v 45.603760 45.683926 -19.478893
v 45.351589 45.683933 -20.291882
v -90.000008 47.220669 3.490833
v -190.000000 47.220665 16.964848
v 43.664509 47.220665 16.823568
v 44.473221 47.220665 16.636488
v 45.406380 46.486835 15.376858
v 45.072109 47.220665 16.078468
v 45.406639 46.486362 -19.305363
v 45.071590 51.723946 16.076248
v 45.323792 47.220665 15.277528
v 45.323792 47.220673 -19.231552
v 45.155251 46.486362 -20.116241
v 45.323792 51.723946 15.273289
v 45.323792 51.723953 -19.227852
v 45.072620 47.220673 -20.041983
v 44.751530 45.683994 -20.905962
v 44.201279 44.997814 -21.420893
v 63.918209 0.000006 -39.227421
v -90.000008 0.000010 -59.277081
v -90.000008 45.046318 -36.402172
v -190.000000 0.000006 -39.136459
v -190.000000 44.988014 -21.376272
v -190.000000 45.679085 -21.134172
v -90.000008 45.708977 -36.108124
v 44.557060 46.486393 -20.728642
v 43.941238 45.684105 -21.180262
v -190.000000 46.484932 -20.954893
v -90.000008 46.493778 -35.890362
v 45.072041 51.723953 -20.040102
v 43.749290 46.486423 -21.002052
v -190.000000 47.220673 -20.879543
v -90.000008 47.220676 -35.798843
v -190.000000 53.922745 -21.431820
v 43.667850 47.220673 -20.927183
v 44.474930 47.220673 -20.653992
v -190.000000 51.723953 -20.879543
v -90.000008 51.723957 -35.798843
v -190.000000 52.454563 -20.963312
v -90.000008 52.444099 -35.899261
v 43.664059 51.723953 -20.927292
v 44.472980 51.723953 -20.653482
v -190.000000 53.248173 -21.162640
v 43.746681 52.452774 -21.010563
v 44.560131 52.452805 -20.735252
vt 0.480844 0.287520
vt 0.482166 0.287517
vt 0.504719 0.001953
vt 0.503544 0.001974
vt 0.493677 0.287516
vt 0.514924 0.002685
vt 0.509066 0.717472
vt 0.519636 0.716980
vt 0.627360 0.647912
vt 0.629279 0.647588
vt 0.603541 0.289146
vt 0.601461 0.289138
vt 0.291967 0.027308
vt 0.289993 0.291258
vt 0.291226 0.291247
vt 0.293229 0.027119
vt 0.627644 0.650142
vt 0.629420 0.649827
vt 0.295750 0.715470
vt 0.502389 0.733960
vt 0.503300 0.723010
vt 0.296957 0.704624
vt 0.504655 0.734447
vt 0.505574 0.723011
vt 0.293358 0.715426
vt 0.294679 0.704120
vt 0.291028 0.715920
vt 0.292343 0.703441
vt 0.280257 0.698639
vt 0.280120 0.701025
vt 0.291427 0.700679
vt 0.291258 0.698312
vt 0.293132 0.701805
vt 0.295237 0.702898
vt 0.292522 0.697898
vt 0.292785 0.700286
vt 0.297488 0.703420
vt 0.502904 0.721714
vt 0.294248 0.700103
vt 0.296170 0.701568
vt 0.298504 0.702259
vt 0.293822 0.697033
vt 0.294224 0.699486
vt 0.288754 0.291267
vt 0.287510 0.291273
vt 0.289417 0.027470
vt 0.290696 0.027438
vt 0.501887 0.720361
vt 0.505193 0.721670
vt 0.507254 0.720997
vt 0.507815 0.722843
vt 0.506579 0.735520
vt 0.507826 0.717001
vt 0.507655 0.719349
vt 0.509052 0.719808
vt 0.504284 0.720144
vt 0.506218 0.718988
vt 0.299771 0.701119
vt 0.500557 0.718979
vt 0.297420 0.700285
vt 0.295702 0.698449
vt 0.295152 0.695940
vt 0.502984 0.718572
vt 0.505267 0.714421
vt 0.504714 0.716979
vt 0.506162 0.718321
vt 0.506554 0.715875
vt 0.479519 0.287529
vt 0.478193 0.287543
vt 0.501182 0.002404
vt 0.502364 0.002145
vt 0.332492 0.834509
vt 0.332161 0.832245
vt 0.329791 0.832250
vt 0.330163 0.834465
vt 0.625229 0.648605
vt 0.599101 0.289128
vt 0.625664 0.650830
vt 0.426048 0.841961
vt 0.426911 0.839833
vt 0.276631 0.291339
vt 0.278224 0.027130
vt 0.631320 0.019593
vt 0.629426 0.019435
vt 0.430288 0.838483
vt 0.427994 0.837961
vt 0.429195 0.840285
vt 0.627311 0.019206
vt 0.623326 0.649511
vt 0.596992 0.289120
vt 0.623918 0.651740
vt 0.428311 0.842326
vt 0.431235 0.841213
vt 0.430424 0.842983
vt 0.625403 0.018956
vt 0.166261 0.654418
vt 0.166151 0.656753
vt 0.168082 0.657408
vt 0.168223 0.655049
vt 0.747017 0.290574
vt 0.784842 0.020011
vt 0.649036 0.020431
vt 0.622465 0.289219
vt 0.784842 0.701870
vt 0.647387 0.648495
vt 0.520096 0.719261
vt 0.647120 0.650730
vt 0.784658 0.704108
vt 0.329276 0.830230
vt 0.331643 0.830207
vt 0.428157 0.862016
vt 0.484295 0.997899
vt 0.486308 0.997123
vt 0.430262 0.861297
vt 0.620364 0.289213
vt 0.647083 0.020430
vt 0.432238 0.839644
vt 0.425866 0.862136
vt 0.482052 0.998047
vt 0.273747 0.983858
vt 0.329949 0.854881
vt 0.327681 0.854473
vt 0.271467 0.983437
vt 0.325557 0.853550
vt 0.269322 0.982499
vt 0.645358 0.647803
vt 0.645163 0.650036
vt 0.618009 0.289206
vt 0.644921 0.020386
vt 0.160562 0.290778
vt 0.162497 0.290786
vt 0.427456 0.860066
vt 0.429612 0.859571
vt 0.643122 0.647318
vt 0.643026 0.649548
vt 0.426987 0.857898
vt 0.429174 0.857669
vt 0.425172 0.860110
vt 0.330714 0.852928
vt 0.328429 0.852568
vt 0.615932 0.289199
vt 0.643000 0.020305
vt 0.641152 0.647148
vt 0.327491 0.832697
vt 0.327008 0.830864
vt 0.641165 0.649376
vt 0.424719 0.857859
vt 0.426858 0.855964
vt 0.429052 0.856018
vt 0.331338 0.850719
vt 0.427831 0.844203
vt 0.429981 0.844547
vt 0.424609 0.855867
vt 0.331682 0.848727
vt 0.329054 0.850425
vt 0.425604 0.843897
vt 0.332553 0.836520
vt 0.329413 0.848482
vt 0.326240 0.851834
vt 0.143977 0.655405
vt 0.013410 0.705514
vt 0.013700 0.707815
vt 0.144236 0.657700
vt 0.001953 0.290892
vt 0.138074 0.290729
vt 0.016615 0.019209
vt 0.146693 0.017131
vt 0.148649 0.017083
vt 0.140035 0.290732
vt 0.326812 0.849908
vt 0.146148 0.657046
vt 0.145932 0.654746
vt 0.150854 0.017066
vt 0.142241 0.290737
vt 0.330265 0.836450
vt 0.148129 0.654245
vt 0.152829 0.017085
vt 0.144225 0.290741
vt 0.148274 0.656534
vt 0.170940 0.017741
vt 0.150097 0.654013
vt 0.327132 0.848201
vt 0.150172 0.656297
vt 0.156420 0.290765
vt 0.164855 0.017383
vt 0.166819 0.017461
vt 0.158387 0.290771
vt 0.162105 0.653802
vt 0.162111 0.656103
vt 0.169003 0.017590
vt 0.164067 0.653967
vt 0.164009 0.656282
vt 0.327816 0.834701
vt 0.327977 0.836423
vn -0.0061 -0.5668 -0.8238
vn -0.0022 -0.1835 -0.9830
vn -0.2748 -0.1484 -0.9500
vn -0.2386 -0.5126 -0.8248
vn -0.0487 0.0000 -0.9988
vn -0.2779 0.0000 -0.9606
vn 0.0176 -0.1777 -0.9839
vn 0.0162 -0.0005 -0.9999
vn -0.0599 0.2187 -0.9739
vn -0.0633 0.0703 -0.9955
vn -0.0172 0.0537 -0.9984
vn -0.0171 0.1671 -0.9858
vn 0.0596 -0.9534 0.2958
vn -0.0037 -0.8348 0.5506
vn -0.0031 -0.9845 0.1756
vn 0.0301 -0.9883 0.1496
vn -0.4487 0.2903 -0.8452
vn -0.4674 0.0938 -0.8790
vn -0.9890 -0.0005 0.1477
vn -0.9877 -0.0006 -0.1563
vn -0.9722 -0.1783 -0.1519
vn -0.9745 -0.1715 0.1447
vn -0.9514 -0.0011 -0.3080
vn -0.8105 -0.2277 -0.5397
vn -0.8639 -0.0013 0.5036
vn -0.8461 -0.2056 0.4918
vn -0.5496 -0.0013 0.8355
vn -0.5368 -0.2056 0.8182
vn -0.2382 -0.0006 0.9712
vn -0.2117 -0.2012 0.9564
vn -0.4247 -0.6275 0.6526
vn -0.6747 -0.6275 0.3887
vn -0.1727 -0.6016 0.7799
vn -0.8188 -0.5618 0.1180
vn -0.8091 -0.5750 -0.1214
vn -0.2243 -0.9101 0.3485
vn -0.3602 -0.9100 0.2050
vn -0.4716 -0.8794 0.0651
vn -0.0943 -0.9017 0.4219
vn -0.0017 -0.4802 0.8772
vn 0.0342 -0.1506 0.9880
vn 0.1953 -0.1480 0.9695
vn 0.1696 -0.5116 0.8423
vn -0.4597 -0.8857 -0.0650
vn -0.7485 -0.4407 -0.4955
vn -0.3688 -0.4415 -0.8179
vn -0.4023 -0.2282 -0.8866
vn -0.6475 -0.0018 -0.7621
vn 0.0527 -0.5218 -0.8514
vn -0.3199 -0.9250 -0.2052
vn -0.4589 -0.8380 -0.2954
vn -0.1514 -0.9254 -0.3476
vn -0.2181 -0.8387 -0.4989
vn -0.1337 -0.9909 0.0179
vn -0.1297 -0.9914 -0.0176
vn -0.1311 -0.9886 0.0741
vn -0.0811 -0.9886 0.1268
vn -0.0241 -0.9945 0.1017
vn -0.1147 -0.9907 -0.0729
vn 0.0126 -0.9906 -0.1364
vn -0.0536 -0.9908 -0.1244
vn 0.0394 -0.8558 -0.5158
vn -0.0089 -0.8848 -0.4658
vn -0.0075 -0.9892 -0.1465
vn -0.0423 -0.9883 -0.1462
vn -0.1450 -0.8531 -0.5012
vn -0.9652 0.2173 0.1455
vn -0.9191 0.3692 0.1374
vn -0.7806 0.4196 0.4632
vn -0.8322 0.2500 0.4949
vn -0.0529 0.3675 -0.9285
vn -0.0167 0.2845 -0.9585
vn -0.4108 0.4776 -0.7766
vn -0.9631 0.2258 -0.1464
vn -0.9139 0.3822 -0.1370
vn 0.0346 -0.0001 0.9994
vn 0.1974 0.0000 0.9803
vn -0.1335 0.0543 -0.9896
vn -0.1325 0.1696 -0.9766
vn -0.6835 0.5911 -0.4284
vn -0.8581 0.4974 -0.1276
vn -0.7523 0.4637 -0.4680
vn -0.1302 0.2889 -0.9485
vn -0.0290 0.4688 -0.8829
vn -0.0247 0.3683 -0.9294
vn -0.3604 0.6036 -0.7111
vn -0.8133 0.2803 -0.5099
vn -0.1623 0.3770 -0.9119
vn -0.2010 0.3704 0.9069
vn -0.4831 0.4130 0.7720
vn -0.4505 0.5346 0.7150
vn -0.1932 0.4863 0.8522
vn -0.1957 0.4064 -0.8925
vn -0.0331 0.3954 -0.9179
vn -0.0095 0.4997 -0.8661
vn 0.1408 -0.7012 0.6990
vn -0.0332 -0.3298 -0.9435
vn -0.1995 -0.3403 -0.9189
vn -0.1648 -0.3251 -0.9312
vn -0.0249 -0.3170 -0.9481
vn -0.0129 -0.4242 -0.9055
vn -0.0318 -0.4097 -0.9116
vn -0.1510 -0.0011 -0.9885
vn -0.3808 -0.5383 -0.7518
vn -0.3616 -0.5617 -0.7441
vn -0.7015 0.5831 0.4098
vn -0.7247 0.5412 0.4265
vn -0.8671 0.4814 0.1280
vn -0.8448 0.5207 0.1237
vn -0.7193 -0.5261 -0.4537
vn -0.7025 -0.5517 -0.4495
vn -0.0168 -0.2535 -0.9672
vn -0.1311 -0.2579 -0.9572
vn -0.8339 0.5378 -0.1241
vn -0.8905 -0.4348 -0.1337
vn -0.8794 -0.4573 -0.1327
vn -0.6523 0.6347 -0.4143
vn -0.8880 -0.4407 0.1311
vn -0.8979 -0.4195 0.1332
vn -0.7571 -0.4771 0.4462
vn -0.7472 -0.5002 0.4377
vn -0.4711 -0.4707 0.7460
vn -0.4674 -0.4947 0.7327
vn -0.0545 -0.3313 -0.9420
vn -0.4203 -0.4363 -0.7956
vn -0.0171 -0.1486 -0.9887
vn -0.1328 -0.1512 -0.9795
vn 0.0181 0.3491 0.9369
vn 0.0209 0.4602 0.8875
vn -0.7684 -0.4233 -0.4799
vn -0.0605 -0.1969 -0.9785
vn -0.4519 -0.2645 -0.8520
vn -0.8187 -0.2556 -0.5142
vn -0.9282 -0.3448 -0.1398
vn -0.9327 -0.3324 0.1397
vn -0.7949 -0.3814 0.4718
vn -0.0172 -0.0480 -0.9987
vn -0.1335 -0.0485 -0.9899
vn -0.1923 0.5281 0.8271
vn 0.0239 0.5000 0.8657
vn -0.0634 -0.0636 -0.9960
vn -0.4676 -0.0864 -0.8797
vn -0.9679 -0.2037 -0.1475
vn -0.8432 -0.0833 -0.5312
vn -0.9697 -0.1958 0.1462
vn -0.8427 0.0903 -0.5307
vn -0.9863 -0.0655 -0.1511
vn -0.9868 -0.0629 0.1493
vn -0.8369 -0.2276 0.4977
vn -0.9859 0.0720 -0.1509
vn -0.9864 0.0693 0.1492
vn -0.8570 -0.0738 0.5101
vn -0.4920 -0.3753 0.7856
vn -0.3335 0.6448 -0.6877
vn -0.2005 -0.4234 0.8835
vn -0.2027 -0.4459 0.8718
vn 0.0253 -0.4201 0.9071
vn 0.0217 -0.3987 0.9168
vn 0.1588 -0.4054 0.9003
vn 0.1485 -0.3852 0.9108
vn 0.1413 -0.3030 0.9425
vn 0.0183 -0.3135 0.9494
vn -0.5186 -0.2235 0.8253
vn -0.2041 -0.3340 0.9202
vn 0.1455 -0.1761 0.9736
vn 0.0185 -0.1828 0.9830
vn -0.8565 0.0800 0.5098
vn -0.4385 0.5772 0.6889
vn -0.2124 -0.1962 0.9573
vn 0.1474 -0.0559 0.9875
vn 0.0187 -0.0585 0.9981
vn 0.1436 0.4446 0.8841
vn 0.1512 0.4822 0.8629
vn -0.2164 -0.0629 0.9743
vn -0.5311 -0.0724 0.8442
vn 0.0186 0.0647 0.9977
vn 0.1473 0.0624 0.9871
vn 0.1449 0.1965 0.9697
vn 0.0185 0.2035 0.9789
vn -0.2162 0.0691 0.9739
vn -0.5309 0.0784 0.8438
vn 0.1395 0.3381 0.9307
vn -0.2114 0.2172 0.9530
vn -0.5155 0.2456 0.8209
usemtl M_Basic_1
s 1
f 1/1/1 4/2/2 3/3/3 2/4/4
f 5/5/5 6/6/6 3/3/3 4/2/2
f 5/5/5 4/2/2 8/7/7 7/8/8
f 9/9/9 12/10/10 11/11/11 10/12/12
f 13/13/13 16/14/14 15/15/15 14/16/16
f 9/9/9 18/17/17 17/18/18 12/10/10
f 19/19/19 22/20/20 21/21/21 20/22/22
f 23/23/23 24/24/24 21/21/21 22/20/20
f 25/25/25 19/19/19 20/22/22 26/26/26
f 27/27/27 25/25/25 26/26/26 28/28/28
f 29/29/29 27/30/27 28/31/28 30/32/30
f 31/33/31 28/28/28 26/26/26 32/34/32
f 33/35/33 30/32/30 28/31/28 31/36/31
f 34/37/34 32/34/32 26/26/26 20/22/22
f 34/37/34 20/22/22 21/21/21 35/38/35
f 36/39/36 31/33/31 32/34/32 37/40/37
f 38/41/38 37/40/37 32/34/32 34/37/34
f 39/42/39 33/35/33 31/36/31 36/43/36
f 40/44/40 30/32/30 33/35/33
f 40/44/40 41/45/41 30/32/30
f 42/46/42 41/45/41 40/44/40 43/47/43
f 38/41/38 34/37/34 35/38/35 44/48/44
f 45/49/45 35/38/35 21/21/21 24/24/24
f 46/50/46 45/49/45 24/24/24 47/51/47
f 48/52/48 47/51/47 24/24/24 23/23/48
f 49/53/49 46/54/46 47/55/47 8/7/7
f 49/53/49 8/7/7 4/2/2
f 49/53/49 4/2/2 1/1/1
f 50/56/50 44/48/44 35/38/35 45/49/51
f 51/57/52 50/56/50 45/49/51 46/50/53
f 52/58/54 38/41/38 44/48/44 53/59/55
f 54/60/56 37/40/37 38/41/38 52/58/54
f 55/61/57 36/39/36 37/40/37 54/60/56
f 54/60/56 52/58/54 56/62/58 55/61/57
f 57/63/59 53/59/55 44/48/44 50/56/50
f 53/59/55 58/64/60 56/62/58 52/58/54
f 56/62/58 39/42/39 36/43/36 55/61/57
f 59/65/61 57/63/59 50/56/50 51/57/52
f 58/64/60 53/59/55 57/63/59 59/65/61
f 58/64/60 59/65/61 51/66/52 60/67/62
f 58/64/60 60/67/62 61/68/63
f 58/64/60 61/68/63 62/69/64
f 15/15/15 39/42/39 56/62/58
f 62/69/64 15/15/15 56/62/58 58/64/60
f 15/15/15 16/14/14 39/42/39
f 62/69/64 63/70/65 14/16/16 15/15/15
f 61/68/63 64/71/66 63/70/65 62/69/64
f 65/72/67 68/73/68 67/74/69 66/75/70
f 69/76/71 9/9/9 10/12/12 70/77/72
f 69/76/71 71/78/73 18/17/17 9/9/9
f 68/73/68 65/72/67 73/79/74 72/80/75
f 74/81/76 41/45/41 42/46/42 75/82/77
f 74/81/76 29/29/29 30/32/30 41/45/41
f 10/12/12 11/11/11 77/83/78 76/84/79
f 78/85/80 80/86/81 72/80/75 79/87/82
f 70/77/72 10/12/12 76/84/79 81/88/83
f 82/89/84 69/76/71 70/77/72 83/90/85
f 82/89/84 84/91/86 71/78/73 69/76/71
f 79/87/82 72/80/75 73/79/74 85/92/87
f 71/93/73 79/87/82 85/92/87 18/94/17
f 83/90/85 70/77/72 81/88/83 86/95/88
f 87/96/89 90/97/90 89/98/91 88/99/92
f 60/67/62 51/66/52 46/54/53 49/53/49
f 86/95/88 6/6/93 5/5/94 83/90/85
f 83/90/85 5/5/94 7/8/95 82/89/84
f 13/13/96 43/47/43 40/44/40 16/14/14
f 91/100/97 94/101/98 93/102/99 92/103/100
f 95/104/101 91/100/97 92/103/100 96/105/102
f 48/106/103 7/8/8 8/7/7 47/55/47
f 97/107/104 98/108/105 95/104/101 96/105/102
f 25/25/106 100/109/107 99/110/108 19/19/109
f 101/111/110 102/112/111 98/113/105 97/114/104
f 103/115/112 92/103/100 93/102/99 104/116/113
f 84/117/86 78/85/80 79/87/82 71/93/73
f 80/86/81 22/20/114 19/19/109 99/110/108
f 105/118/115 106/119/116 102/112/111 101/111/110
f 23/23/117 22/20/114 80/86/81 78/85/80
f 107/120/118 106/119/116 105/118/115 108/121/119
f 109/122/120 110/123/121 107/120/118 108/121/119
f 60/67/62 1/1/1 61/68/63
f 111/124/122 112/125/123 110/123/121 109/122/120
f 96/105/102 92/103/100 103/115/112 113/126/124
f 67/74/69 68/73/68 99/110/108 100/109/107
f 114/127/125 97/107/104 96/105/102 113/126/124
f 115/128/126 103/115/112 104/116/113 116/129/127
f 117/130/128 87/96/89 88/99/92 118/131/129
f 119/132/130 101/111/110 97/114/104 114/133/125
f 120/134/131 113/126/124 103/115/112 115/128/126
f 99/110/108 68/73/68 72/80/75 80/86/81
f 121/135/132 114/127/125 113/126/124 120/134/131
f 122/136/133 119/132/130 114/133/125 121/137/132
f 123/138/134 105/118/115 101/111/110 119/132/130
f 108/121/119 105/118/115 123/138/134 124/139/135
f 109/122/120 108/121/119 124/139/135 125/140/136
f 126/141/137 115/128/126 116/129/127 127/142/138
f 118/131/129 88/99/92 29/29/139 74/81/140
f 126/141/137 127/142/138 77/83/78 11/11/11
f 120/134/131 115/128/126 126/141/137 128/143/141
f 90/144/90 67/74/69 100/109/107 89/145/91
f 129/146/142 121/135/132 120/134/131 128/143/141
f 130/147/143 123/138/134 119/132/130 122/136/133
f 128/143/141 126/141/137 11/11/11 12/10/10
f 131/148/144 122/136/133 121/137/132 129/149/142
f 124/139/135 123/138/134 130/147/143 132/150/145
f 17/18/18 129/146/142 128/143/141 12/10/10
f 133/151/146 131/148/144 129/149/142 17/152/18
f 134/153/147 130/147/143 122/136/133 131/148/144
f 132/150/145 130/147/143 134/153/147 135/154/148
f 125/140/136 124/139/135 132/150/145 136/155/149
f 137/156/150 134/153/147 131/148/144 133/151/146
f 135/154/148 134/153/147 137/156/150 138/157/151
f 136/155/149 132/150/145 135/154/148 139/158/152
f 111/124/122 109/122/120 125/140/136 140/159/153
f 48/52/154 23/23/117 78/85/80 84/117/86
f 141/160/155 142/161/156 112/162/123 111/163/122
f 61/68/63 1/1/1 2/4/4 64/71/66
f 143/164/157 142/161/156 141/160/155 144/165/158
f 16/14/14 33/35/33 39/42/39
f 145/166/159 143/164/157 144/165/158 146/167/160
f 7/8/95 48/106/154 84/91/86 82/89/84
f 147/168/161 146/167/160 144/165/158 148/169/162
f 140/159/153 125/140/136 136/155/149 149/170/163
f 141/160/155 111/163/122 140/171/153 150/172/164
f 60/67/62 49/53/49 1/1/1
f 148/169/162 144/165/158 141/160/155 150/172/164
f 151/173/165 147/168/161 148/169/162 152/174/166
f 138/157/151 153/175/167 139/158/152 135/154/148
f 27/30/168 29/29/139 88/99/92 89/98/91
f 152/174/166 148/169/162 150/172/164 154/176/169
f 155/177/170 151/173/165 152/174/166 156/178/171
f 153/175/167 138/157/151 65/72/67 66/75/70
f 140/171/153 149/179/163 154/176/169 150/172/164
f 157/180/172 118/131/129 74/81/140 75/82/173
f 156/178/171 152/174/166 154/176/169 158/181/174
f 149/170/163 136/155/149 139/158/152 159/182/175
f 65/72/67 138/157/151 137/156/150 73/79/74
f 149/179/163 159/183/175 158/181/174 154/176/169
f 155/177/170 156/178/171 161/184/176 160/185/177
f 162/186/178 160/185/177 161/184/176 163/187/179
f 158/181/174 164/188/180 161/184/176 156/178/171
f 165/189/181 164/188/180 158/181/174 159/183/175
f 25/25/106 27/27/168 89/145/91 100/109/107
f 166/190/182 162/186/178 163/187/179 117/130/128
f 163/187/179 161/184/176 164/188/180 167/191/183
f 85/92/87 73/79/74 137/156/150 133/151/146
f 165/189/181 168/192/184 167/191/183 164/188/180
f 16/14/14 40/44/40 33/35/33
f 157/180/172 166/190/182 117/130/128 118/131/129
f 117/130/128 163/187/179 167/191/183 87/96/89
f 168/193/184 66/75/70 67/74/69 90/144/90
f 168/192/184 90/97/90 87/96/89 167/191/183
f 153/175/167 165/194/181 159/182/175 139/158/152
f 153/175/167 66/75/70 168/193/184 165/194/181
f 18/94/17 85/92/87 133/151/146 17/152/18
