#File written by LIBRIZOMUV. Compilation :Dec 13 2019,23:12:04
mtllib Deurtj_nieuw:mtl
#begin vertices
v -197.8572 203.4458 -66.11587
v -197.8572 203.4458 -92.61894
v -197.8572 18.9938 -92.61897
v -197.8572 18.9938 -66.1159
v -189.4793 226.2026 -56.8482
v -189.4793 3.134037 -56.84824
v -189.4793 18.1716 -66.78876
v -189.4793 203.6188 -66.78873
v -199.2443 203.6188 -66.78873
v -198.2678 202.689 -67.43529
v -198.2678 19.10127 -67.43532
v -199.2443 18.1716 -66.78876
v -190.4557 19.10127 -67.43532
v -189.4793 18.17161 -92.69038
v -190.4557 19.10127 -92.04383
v -190.4557 202.689 -67.43529
v -190.4557 202.689 -92.0438
v -189.4793 203.6188 -92.69035
v -198.2678 202.689 -92.0438
v -199.2443 203.6188 -92.69035
v -199.2443 18.17161 -92.69038
v -198.2678 19.10127 -92.04383
v -199.2443 226.5874 -150.3278
v -199.2443 3.134053 -150.3278
v -199.2443 240.1221 -140.9158
v -198.2678 226.5874 -56.20163
v -199.2443 226.2026 -56.8482
v -199.2443 3.134037 -56.84824
v -198.2678 3.134037 -56.20167
v -190.4557 3.134037 -56.20167
v -190.4557 226.5874 -56.20163
v -189.4793 3.134053 -150.3278
v -198.2678 240.1221 -65.61362
v -199.2443 240.1221 -66.52786
v -190.4557 240.1221 -65.61362
v -189.4793 226.5874 -150.3278
v -189.4793 240.1221 -140.9158
v -189.4793 240.1221 -66.52786
v -191.008 203.4458 -92.61894
v -191.008 203.4458 -66.11587
v -191.008 18.9938 -66.1159
v -191.008 18.9938 -92.61897
v -190.2717 224.4047 -149.2695
v -189.0794 224.9636 -150.2085
v -189.0794 240.1362 -139.6575
v -190.2717 238.7859 -139.268
v -189.0794 2.777241 -56.29137
v -190.2717 2.774264 -57.23039
v -190.2717 224.4047 -57.23035
v -189.0794 224.9636 -56.29133
v -180.408 1.108644 -57.23039
v -180.408 1.108659 -149.2695
v -190.2717 2.774279 -149.2695
v -190.2717 238.7859 -67.23103
v -189.0794 240.1362 -66.84234
v -190.2717 2.811805 -45.37046
v -189.0794 2.808855 -46.30874
v -189.0794 238.6767 -46.3087
v -190.2717 239.2357 -45.37042
v -199.8528 239.2357 -45.37042
v -199.8528 2.811805 -45.37046
v -189.0794 252.2666 -55.75979
v -190.2717 253.6169 -55.37111
v -189.0794 252.2666 -150.74
v -190.2717 253.6169 -151.1279
v -189.0794 238.6767 -160.1904
v -190.2717 239.2357 -161.1293
v -189.0794 2.777823 -150.2085
v -189.0794 2.815459 -160.1904
v -209.7155 1.108659 -149.2695
v -209.7155 1.108644 -57.23039
v -199.8528 2.774264 -57.23039
v -199.8528 2.774279 -149.2695
v -201.0441 2.777241 -56.29137
v -201.0441 224.9636 -56.29133
v -199.8528 224.4047 -57.23035
v -199.8528 238.7859 -67.23103
v -201.0441 240.1362 -66.84234
v -201.0441 2.808855 -46.30874
v -201.0441 238.6767 -46.3087
v -201.0441 252.2666 -55.75979
v -199.8528 253.6169 -55.37111
v -201.0441 252.2666 -150.74
v -201.0441 240.1362 -139.6575
v -201.0441 238.6767 -160.1904
v -201.0441 224.9636 -150.2085
v -199.8528 239.2357 -161.1293
v -199.8528 253.6169 -151.1279
v -201.0441 2.777823 -150.2085
v -201.0441 2.815459 -160.1904
v -199.8528 2.819003 -161.1294
v -199.8528 238.7859 -139.268
v -199.8528 224.4047 -149.2695
v -190.2717 2.819003 -161.1294
v -189.0794 -0.35295 -56.29137
v -190.2717 -0.35294 -57.23039
v -180.408 -0.347201 -57.23039
v -189.0794 -0.353061 -46.30874
v -180.408 -0.347186 -149.2695
v -190.2717 -0.353071 -45.37046
v -190.2717 -0.352925 -149.2695
v -199.8528 -0.353071 -45.37046
v -189.0794 -0.352937 -150.2085
v -201.0441 -0.353061 -46.30874
v -189.0794 -0.353065 -160.1904
v -201.0441 -0.35295 -56.29137
v -190.2717 -0.353077 -161.1294
v -199.8528 -0.35294 -57.23039
v -199.8528 -0.353077 -161.1294
v -209.7155 -0.347201 -57.23039
v -201.0441 -0.353065 -160.1904
v -209.7155 -0.347186 -149.2695
v -201.0441 -0.352937 -150.2085
v -199.8528 -0.352925 -149.2695
#end vertices

#begin 180 textures vertices 
vt 0.816382 0.50987 0
vt 0.759972 0.50987 0
vt 0.759972 0.117275 0
vt 0.816382 0.117275 0
vt 0.2222973 0.9620475 0
vt 0.2243806 0.4872881 0
vt 0.2453982 0.5193988 0
vt 0.2436662 0.9140848 0
vt 0.609976 0.540778 0
vt 0.607461 0.538807 0
vt 0.607747 0.148439 0
vt 0.610211 0.147288 0
vt 0.590867 0.148243 0
vt 0.588195 0.096113 0
vt 0.591081 0.097589 0
vt 0.634847 0.533745 0
vt 0.635062 0.483091 0
vt 0.637509 0.484183 0
vt 0.618182 0.482895 0
vt 0.615717 0.484046 0
vt 0.615952 0.090557 0
vt 0.618468 0.092527 0
vt 0.001763008 0.9620161 0
vt 0.003782685 0.4863979 0
vt 0.02169456 0.9909183 0
vt 0.2031813 0.9628269 0
vt 0.2007004 0.9619561 0
vt 0.2027675 0.4872881 0
vt 0.2052603 0.4872881 0
vt 0.221888 0.4872881 0
vt 0.2198098 0.9628935 0
vt 0.4233646 0.4882273 0
vt 0.1828666 0.9920852 0
vt 0.1800667 0.991521 0
vt 0.2197385 0.9979605 0
vt 0.42119 0.9639043 0
vt 0.4010118 0.9926242 0
vt 0.2425967 0.9918641 0
vt 0.878878 0.510526 0
vt 0.822467 0.510526 0
vt 0.822467 0.117932 0
vt 0.878878 0.117932 0
vt 0.6842031 0.5311023 0
vt 0.6872276 0.532539 0
vt 0.6574864 0.5631402 0
vt 0.6564871 0.5591683 0
vt 0.4545942 0.06129989 0
vt 0.4576387 0.06129989 0
vt 0.4576387 0.5312193 0
vt 0.4545942 0.5326011 0
vt 0.017649 0.4001075 0
vt 0.213544 0.4001075 0
vt 0.2136635 0.4213494 0
vt 0.4850385 0.5591919 0
vt 0.4840231 0.5631604 0
vt 0.4310074 0.06129989 0
vt 0.4340548 0.06129989 0
vt 0.4340548 0.5626973 0
vt 0.4310074 0.5640766 0
vt 0.535385 0.039236 0
vt 0.535385 0.542449 0
vt 0.4589669 0.5902085 0
vt 0.457963 0.5941806 0
vt 0.6827091 0.5900973 0
vt 0.6836974 0.5940673 0
vt 0.7075772 0.5629519 0
vt 0.7105969 0.5643853 0
vt 0.6872276 0.06224446 0
vt 0.7075772 0.06224446 0
vt 0.2138323 0.4629948 0
vt 0.01791032 0.463156 0
vt 0.01781834 0.4418595 0
vt 0.2137409 0.4417166 0
vt 0.9605344 0.05177622 0
vt 0.9605344 0.5234611 0
vt 0.9574153 0.5220992 0
vt 0.582435 0.540435 0
vt 0.9327096 0.5543769 0
vt 0.9812668 0.05177622 0
vt 0.9812668 0.553439 0
vt 0.957336 0.5809201 0
vt 0.9583227 0.5848351 0
vt 0.7393998 0.5809502 0
vt 0.7639829 0.5543116 0
vt 0.7153747 0.5535557 0
vt 0.7359744 0.5235172 0
vt 0.7123161 0.5549247 0
vt 0.7384052 0.5848648 0
vt 0.7359744 0.05196445 0
vt 0.7153747 0.05196445 0
vt 0.7123161 0.05196445 0
vt 0.557755 0.03389 0
vt 0.557755 0.071174 0
vt 0.7105969 0.06224446 0
vt 0.4545942 0.05525344 0
vt 0.01121801 0.4204047 0
vt 0.0176427 0.3970098 0
vt 0.4340548 0.05525344 0
vt 0.2165864 0.3993995 0
vt 0.4310074 0.05525344 0
vt 0.6842031 0.05664764 0
vt 0.535385 0.549185 0
vt 0.6872276 0.05664764 0
vt 0.9812668 0.04564529 0
vt 0.7075772 0.05664764 0
vt 0.9605344 0.04564529 0
vt 0.503597 0.549785 0
vt 0.9574153 0.04564529 0
vt 0.7123161 0.04587895 0
vt 0.01486056 0.4636935 0
vt 0.7153747 0.04587895 0
vt 0.2138455 0.4660924 0
vt 0.7359744 0.04587895 0
vt 0.2203051 0.4427776 0
vt 0.635221 0.092429 0
vt 0.588419 0.147151 0
vt 0.590707 0.538906 0
vt 0.9574153 0.05177622 0
vt 0.582435 0.031425 0
vt 0.588195 0.540837 0
vt 0.637734 0.535221 0
vt 0.582435 0.503151 0
vt 0.1814698 0.5191855 0
vt 0.7390267 0.05196445 0
vt 0.557755 0.5429 0
vt 0.1797511 0.913809 0
vt 0.615779 0.53587 0
vt 0.918118 0.512221 0
vt 0.535385 0.001953 0
vt 0.2987449 0.9144352 0
vt 0.618611 0.534433 0
vt 0.300534 0.5196604 0
vt 0.637734 0.090498 0
vt 0.1246341 0.9136201 0
vt 0.1263272 0.5189458 0
vt 0.610149 0.095464 0
vt 0.607317 0.096901 0
vt 0.01454122 0.3997857 0
vt 0.2031167 0.9979375 0
vt 0.01792358 0.466255 0
vt 0.921661 0.438142 0
vt 0.537362 0.03389 0
vt 0.7105969 0.05664764 0
vt 0.537362 0.071174 0
vt 0.2168921 0.4634893 0
vt 0.01773076 0.421443 0
vt 0.562042 0.031425 0
vt 0.562042 0.503151 0
vt 0.562042 0.540435 0
vt 0.921661 0.284816 0
vt 0.514992 0.039236 0
vt 0.514992 0.542449 0
vt 0.9844082 0.5547994 0
vt 0.9844082 0.05177622 0
vt 0.897725 0.512221 0
vt 0.514992 0.001953 0
vt 0.897725 0.308408 0
vt 0.503597 0.002552 0
vt 0.503597 0.039836 0
vt 0.6842031 0.06224446 0
vt 0.537362 0.5429 0
vt 0.931696 0.5504645 0
vt 0.942054 0.284816 0
vt 0.918118 0.308408 0
vt 0.483205 0.002552 0
vt 0.483205 0.039836 0
vt 0.483205 0.543034 0
vt 0.7650081 0.5504 0
vt 0.942054 0.438142 0
vt 0.7390267 0.5221458 0
vt 0.503597 0.543034 0
vt 0.4576387 0.05525344 0
vt 0.213534 0.3970085 0
vt 0.514992 0.549185 0
vt 0.2202218 0.4201715 0
vt 0.9844082 0.04564529 0
vt 0.01125855 0.4430148 0
vt 0.483205 0.549785 0
vt 0.7390267 0.04587895 0
vt 0.2397834 0.9924276 0
#end 180 textures vertices 

#begin 65 normals 
vn -1 0 0
vn 1 0 0
vn -0.5521 0 -0.8338
vn 0.6896 0.7242 0
vn 0.6896 -0.7242 0
vn -0.5521 -0 0.8338
vn 0 -1 0
vn -0.6896 -0.7242 0
vn 0.5521 -0 0.8338
vn -0.2882 0 0.9576
vn -0.2883 -0 0.9575
vn 0.2883 -0 0.9575
vn 0.2883 -0 0.9576
vn -0.3218 0.5405 0.7773
vn -0.6094 0.4527 0.6509
vn -0.6895 0.7243 0
vn 0.3218 0.5406 0.7773
vn 0.3219 0.5405 0.7773
vn 0 0 -1
vn 0 -0 1
vn 0 1 0
vn 0.6094 0.4526 0.6509
vn 0.5521 0 -0.8338
vn 0.6647 -0.2165 0.715
vn 0.754 -0.5733 0.3207
vn 0.6187 0 -0.7856
vn 0.6647 -0.2165 -0.7151
vn 0.1665 0.986 0
vn 0.7539 -0.5734 -0.3207
vn 0.6184 -0 0.7858
vn 0.6645 0.2165 0.7152
vn 0.6645 0.2166 0.7152
vn 0 0.2992 0.9542
vn 0 -0 1
vn 0.7539 0.5734 0.3208
vn 0.7539 0.5734 0.3207
vn 1 0 0
vn 0.7539 0.5734 -0.3207
vn 0.7539 0.5734 -0.3208
vn 0.6646 0.2166 -0.7151
vn 0.6646 0.2165 -0.7151
vn -0.1665 0.986 0
vn 0 1 0
vn -0.619 0 -0.7854
vn -0.665 -0.2164 -0.7148
vn 0 -0.2992 -0.9542
vn 0 -0.8863 -0.4632
vn -0.7542 -0.5731 -0.3206
vn -0.6187 -0 0.7856
vn -0.6648 0.2165 0.715
vn -1 0 0
vn -0.7541 0.5731 0.3206
vn -0.6649 0.2165 -0.7149
vn -0.6649 0.2165 -0.7148
vn -0.7541 0.5731 -0.3206
vn 0 -0.8863 0.4632
vn 0 -0.2992 0.9542
vn 0.6187 -0 0.7856
vn 0 0.8863 -0.4632
vn 0 0.8863 0.4632
vn 0 0.2992 -0.9542
vn 0 0 -1
vn -0.7542 -0.5731 0.3205
vn -0.665 -0.2164 0.7148
vn -0.619 -0 0.7854
#end 65 normals 

#begin 95 faces
o Door:1
usemtl M_Basic_1:004
s 1
f 1/1/1 2/2/1 3/3/1 4/4/1 
f 5/5/2 6/6/2 7/7/2 8/8/2 
f 9/9/3 10/10/3 11/11/3 12/12/3 
f 13/13/4 7/116/4 14/14/4 15/15/4 
f 8/121/5 16/16/5 17/17/5 18/18/5 
f 19/19/6 20/20/6 21/21/6 22/22/6 
f 10/131/7 19/19/7 17/17/7 16/16/7 
f 20/20/8 19/19/8 10/131/8 9/127/8 
f 23/23/1 24/24/1 21/135/1 20/134/1 
f 25/25/1 23/23/1 20/134/1 
f 18/18/9 17/17/9 15/115/9 14/133/9 
f 26/26/10 27/27/6 28/28/6 29/29/11 
f 9/126/1 12/123/1 28/28/1 27/27/1 
f 26/26/10 29/29/11 30/30/12 31/31/13 
f 6/6/2 32/32/2 14/132/2 7/7/2 
f 33/33/14 34/34/15 27/27/15 26/26/14 
f 22/137/16 21/136/16 12/12/16 11/11/16 
f 24/24/1 28/28/1 12/123/1 21/135/1 
f 33/139/14 26/26/14 31/31/17 35/35/18 
f 11/11/19 10/10/19 16/117/19 13/13/19 
f 19/19/20 22/22/20 15/115/20 17/17/20 
f 22/137/21 11/11/21 13/13/21 15/15/21 
f 36/36/2 18/130/2 14/132/2 32/32/2 
f 37/37/2 18/130/2 36/36/2 
f 5/5/2 18/130/2 37/37/2 38/38/2 
f 31/31/17 5/5/22 38/38/22 35/180/18 
f 16/117/23 8/120/23 7/116/23 13/13/23 
f 8/8/2 18/130/2 5/5/2 
f 30/30/12 6/6/9 5/5/9 31/31/13 
f 20/134/1 9/126/1 27/27/1 
f 39/39/2 40/40/2 41/41/2 42/42/2 
f 34/34/1 25/25/1 20/134/1 27/27/1 
o Frame_1:1
usemtl M_Basic_1:004
s 1
f 43/43/24 44/44/24 45/45/25 46/46/25 
f 47/47/26 48/48/26 49/49/27 50/50/27 
f 51/51/28 52/52/28 53/53/28 48/146/28 
f 54/54/29 55/55/29 50/50/27 49/49/27 
f 56/56/30 57/57/30 58/58/31 59/59/32 
f 60/60/33 61/61/34 56/152/34 59/151/33 
f 62/62/35 63/63/36 59/59/32 58/58/31 
f 55/55/37 62/62/37 58/58/37 50/50/37 
f 47/47/37 50/50/37 58/58/37 57/57/37 
f 45/45/37 64/64/37 62/62/37 55/55/37 
f 63/63/36 62/62/35 64/64/38 65/65/39 
f 44/44/37 66/66/37 64/64/37 45/45/37 
f 65/65/39 64/64/38 66/66/40 67/67/41 
f 68/68/37 69/69/37 66/66/37 44/44/37 
f 70/70/42 71/71/42 72/72/42 73/73/42 
f 72/72/43 48/146/43 53/53/43 73/73/43 
f 72/118/44 74/74/44 75/75/45 76/76/45 
f 49/148/46 76/122/46 77/77/47 54/149/47 
f 78/78/48 77/162/48 76/76/45 75/75/45 
f 79/79/49 61/154/49 60/153/50 80/80/50 
f 74/74/51 79/79/51 80/80/51 75/75/51 
f 78/78/51 75/75/51 80/80/51 81/81/51 
f 82/82/52 81/81/52 80/80/50 60/153/50 
f 83/83/51 84/84/51 78/78/51 81/81/51 
f 85/85/51 86/86/51 84/84/51 83/83/51 
f 87/87/53 85/85/54 83/83/55 88/88/55 
f 89/89/51 86/86/51 85/85/51 90/90/51 
f 91/91/44 90/90/44 85/85/54 87/87/53 
f 46/142/56 92/92/56 93/93/57 43/144/57 
f 46/46/25 45/45/25 55/55/29 54/54/29 
f 53/160/58 68/68/58 44/44/24 43/43/24 
f 65/157/59 88/164/59 82/128/60 63/155/60 
f 67/67/41 66/66/40 69/69/26 94/94/26 
f 87/166/61 67/159/61 94/171/62 91/167/62 
f 84/84/63 92/168/63 77/162/48 78/78/48 
f 86/86/64 93/170/64 92/168/63 84/84/63 
f 88/88/55 83/83/55 81/81/52 82/82/52 
f 89/89/65 73/124/65 93/170/64 86/86/64 
f 65/158/59 67/159/61 87/166/61 88/165/59 
f 72/119/62 76/122/46 49/148/46 48/147/62 
f 54/150/47 77/163/47 92/169/56 46/141/56 
f 43/144/57 93/93/57 73/125/34 53/161/34 
f 59/151/33 63/156/60 82/129/60 60/60/33 
f 47/47/26 95/95/26 96/172/26 48/48/26 
f 48/146/34 96/96/34 97/138/34 51/51/34 
f 57/57/37 98/98/37 95/95/37 47/47/37 
f 51/51/37 97/97/37 99/173/37 52/52/37 
f 56/56/30 100/100/30 98/98/30 57/57/30 
f 52/52/62 99/99/62 101/175/62 53/53/62 
f 61/61/34 102/102/34 100/174/34 56/152/34 
f 53/160/58 101/101/58 103/103/58 68/68/58 
f 79/79/49 104/104/49 102/176/49 61/154/49 
f 68/68/37 103/103/37 105/105/37 69/69/37 
f 74/74/51 106/106/51 104/104/51 79/79/51 
f 69/69/26 105/105/26 107/143/26 94/94/26 
f 72/118/44 108/108/44 106/106/44 74/74/44 
f 94/171/62 107/107/62 109/178/62 91/167/62 
f 71/71/34 110/110/34 108/177/34 72/72/34 
f 91/91/44 109/109/44 111/111/44 90/90/44 
f 70/70/51 112/112/51 110/140/51 71/71/51 
f 90/90/51 111/111/51 113/113/51 89/89/51 
f 73/73/62 114/114/62 112/145/62 70/70/62 
f 89/89/65 113/113/65 114/179/65 73/124/65 
#end 95 faces

#begin properties
#ZOMPROPERTIES_02 table {Mesh table {SymPlane table {Point vector3d 0 0 0 Normal vector3d 1 0 0 Threshold double 0.01 Enabled bool false EdgeID int -1 SymEdgeID int -1 UPos double 0.5 LocalMode bool false } RootGroup CSubMeshGroup {Children table {Tile_0_0 CSubMeshGroup {Children table {} BBoxUV box3d 0 0 0 0 0 0 BBox3D box3d 0 0 0 0 0 0 AreaUV double 0.3677831 Area3D double 0 IsRoot bool false TopoStable table {Selected bool false Box box3d 0 1 0 1 0 1 U int 0 V int 0 NU int 0 NV int 0 Tiling vector3d 1 1 1 TileRatioMode string "1:1" } IsTile bool true PolyIDs ints { 0 1 14 22 23 24 25 28 13 11 12 29 31 9 8 17 15 18 27 2 16 21 3 26 19 4 10 20 5 7 6 30 32 61 35 33 75 77 79 36 38 42 44 64 86 84 82 62 45 43 41 39 40 34 47 46 91 93 89 80 78 76 37 81 74 48 50 66 67 69 94 92 90 59 57 68 54 51 83 85 87 52 53 55 56 58 49 71 60 73 63 65 88 70 72 } } } BBoxUV box3d 0 0 0 0 0 0 BBox3D box3d 0 0 0 0 0 0 AreaUV double 0 Area3D double 0 IsRoot bool true TopoStable table {Selected bool false Box box3d 0 1 0 1 0 1 U int 0 V int 0 NU int 1 NV int 1 Tiling vector3d 1 1 1 TileRatioMode string "1:1" Pack table {Rotate table {Mode int 2 Min double 0 Max double 180 Step double 0 } SpacingSize double 0.00390625 MarginSize double 0.001953125 Resolution int 200 Scaling table {Mode int 0 } LayoutScalingMode int 2 MaxMutations int 1 } } IsTile bool false PolyIDs ints { } } Maps table {Density table {PrimType string "Polygon" Size int 1 DefaultValue double 1 ScaleType string "Log" Mergeode string "Average" MinValue double 0.1 MaxValue double 4 Data doubles { r 95 1 } } Pin table {PrimType string "Vertex" Size int 1 DefaultValue double 0 ScaleType string "Normalized" Mergeode string "Max" MinValue double 0 MaxValue double 1 Data doubles { r 180 0 } } Protect table {PrimType string "Vertex" Size int 1 DefaultValue double 0 ScaleType string "Normalized" Mergeode string "Average" MinValue double -1 MaxValue double 1 Data doubles { r 180 0 } } } } }
#end properties

#begin 0 fatal error vertex (that RizomUV cannot handle)
#end 0 fatal error vertex (that RizomUV cannot handle)

#begin 0 error vertex
#end 0 error vertex
