# Blender v2.93.4 OBJ File: ''
# www.blender.org
mtllib Deurtj.mtl
o Door:1
v -3.481964 96.630669 36.527439
v -3.481964 96.630669 10.024364
v -3.481964 -87.821335 10.024304
v -3.481964 -87.821335 36.527378
v 4.895935 119.387466 45.795109
v 4.895935 -103.681107 45.795036
v 4.895935 -88.643532 35.854519
v 4.895935 96.803673 35.854580
v -4.869064 96.803673 35.854580
v -3.892578 95.873863 35.208019
v -3.892578 -87.713860 35.207958
v -4.869064 -88.643532 35.854519
v 3.919525 -87.713860 35.207958
v 4.895935 -88.643524 9.952901
v 3.919525 -87.713860 10.599446
v 3.919525 95.873863 35.208019
v 3.919525 95.873863 10.599506
v 4.895935 96.803673 9.952953
v -3.892578 95.873863 10.599506
v -4.869064 96.803673 9.952953
v -4.869064 -88.643524 9.952901
v -3.892578 -87.713860 10.599446
v -4.869064 119.772278 -47.684494
v -4.869064 -103.681068 -47.684532
v -4.869064 133.306976 -38.272488
v -3.892578 119.772263 46.441681
v -4.869064 119.387466 45.795109
v -4.869064 -103.681107 45.795036
v -3.892578 -103.681107 46.441605
v 3.919525 -103.681107 46.441605
v 3.919525 119.772263 46.441681
v 4.895935 -103.681068 -47.684532
v -3.892578 133.306976 37.029694
v -4.869064 133.306976 36.115448
v 3.919525 133.306976 37.029694
v 4.895935 119.772278 -47.684494
v 4.895935 133.306976 -38.272488
v 4.895935 133.306976 36.115448
v 3.367233 96.630669 10.024364
v 3.367233 96.630669 36.527439
v 3.367233 -87.821335 36.527378
v 3.367233 -87.821335 10.024304
vt 0.816382 0.509870
vt 0.759972 0.509870
vt 0.759972 0.117275
vt 0.816382 0.117275
vt 0.222297 0.962048
vt 0.224381 0.487288
vt 0.245398 0.519399
vt 0.243666 0.914085
vt 0.609976 0.540778
vt 0.607461 0.538807
vt 0.607747 0.148439
vt 0.610211 0.147288
vt 0.590867 0.148243
vt 0.588419 0.147151
vt 0.588195 0.096113
vt 0.591081 0.097589
vt 0.637734 0.535221
vt 0.634847 0.533745
vt 0.635062 0.483091
vt 0.637509 0.484183
vt 0.618182 0.482895
vt 0.615717 0.484046
vt 0.615952 0.090557
vt 0.618468 0.092527
vt 0.618611 0.534433
vt 0.615779 0.535870
vt 0.001763 0.962016
vt 0.003783 0.486398
vt 0.126327 0.518946
vt 0.124634 0.913620
vt 0.021695 0.990918
vt 0.635221 0.092429
vt 0.637734 0.090498
vt 0.203181 0.962827
vt 0.200700 0.961956
vt 0.202768 0.487288
vt 0.205260 0.487288
vt 0.179751 0.913809
vt 0.181470 0.519185
vt 0.221888 0.487288
vt 0.219810 0.962893
vt 0.423365 0.488227
vt 0.300534 0.519660
vt 0.182867 0.992085
vt 0.180067 0.991521
vt 0.607317 0.096901
vt 0.610149 0.095464
vt 0.203117 0.997938
vt 0.219738 0.997961
vt 0.590707 0.538906
vt 0.421190 0.963904
vt 0.298745 0.914435
vt 0.401012 0.992624
vt 0.242597 0.991864
vt 0.239783 0.992428
vt 0.588195 0.540837
vt 0.878878 0.510526
vt 0.822467 0.510526
vt 0.822467 0.117932
vt 0.878878 0.117932
vn -1.0000 0.0000 0.0000
vn 1.0000 -0.0000 0.0000
vn -0.5521 0.0000 -0.8338
vn 0.6896 0.7242 0.0000
vn 0.6896 -0.7242 0.0000
vn -0.5521 -0.0000 0.8338
vn 0.0000 -1.0000 0.0000
vn -0.6896 -0.7242 0.0000
vn 0.5521 -0.0000 0.8338
vn -0.2882 0.0000 0.9576
vn -0.2883 -0.0000 0.9575
vn 0.2883 -0.0000 0.9575
vn -0.3218 0.5405 0.7773
vn -0.6094 0.4527 0.6509
vn -0.3218 0.5405 0.7774
vn -0.6895 0.7243 0.0000
vn 0.3218 0.5406 0.7773
vn 0.3219 0.5405 0.7773
vn 0.0000 0.0000 -1.0000
vn 0.0000 -0.0000 1.0000
vn 0.0000 1.0000 0.0000
vn 0.6094 0.4526 0.6509
vn 0.5521 0.0000 -0.8338
usemtl M_Basic_1:004
s 1
f 1/1/1 2/2/1 3/3/1 4/4/1
f 5/5/2 6/6/2 7/7/2 8/8/2
f 9/9/3 10/10/3 11/11/3 12/12/3
f 13/13/4 7/14/4 14/15/4 15/16/4
f 8/17/5 16/18/5 17/19/5 18/20/5
f 19/21/6 20/22/6 21/23/6 22/24/6
f 10/25/7 19/21/7 17/19/7 16/18/7
f 20/22/8 19/21/8 10/25/8 9/26/8
f 23/27/1 24/28/1 21/29/1 20/30/1
f 25/31/1 23/27/1 20/30/1
f 18/20/9 17/19/9 15/32/9 14/33/9
f 26/34/10 27/35/6 28/36/6 29/37/11
f 9/38/1 12/39/1 28/36/1 27/35/1
f 26/34/10 29/37/11 30/40/12 31/41/12
f 6/6/2 32/42/2 14/43/2 7/7/2
f 33/44/13 34/45/14 27/35/14 26/34/15
f 22/46/16 21/47/16 12/12/16 11/11/16
f 24/28/1 28/36/1 12/39/1 21/29/1
f 33/48/13 26/34/15 31/41/17 35/49/18
f 11/11/19 10/10/19 16/50/19 13/13/19
f 19/21/20 22/24/20 15/32/20 17/19/20
f 22/46/21 11/11/21 13/13/21 15/16/21
f 36/51/2 18/52/2 14/43/2 32/42/2
f 37/53/2 18/52/2 36/51/2
f 5/5/2 18/52/2 37/53/2 38/54/2
f 31/41/17 5/5/22 38/54/22 35/55/18
f 16/50/23 8/56/23 7/14/23 13/13/23
f 8/8/2 18/52/2 5/5/2
f 30/40/12 6/6/9 5/5/9 31/41/12
f 20/30/1 9/38/1 27/35/1
f 39/57/2 40/58/2 41/59/2 42/60/2
f 34/45/1 25/31/1 20/30/1 27/35/1
o Frame_1:1
v 4.790207 117.592766 -46.019650
v 5.982498 118.151665 -46.958645
v 5.982498 133.324265 -36.407646
v 4.790207 131.973969 -36.018150
v 5.982498 -104.034698 46.958447
v 4.790207 -104.037682 46.019428
v 4.790207 117.592751 46.019501
v 5.982498 118.151649 46.958523
v 14.653900 -105.703300 46.019424
v 14.653900 -105.703270 -46.019688
v 4.790207 -104.037651 -46.019684
v 4.790207 131.973969 36.018822
v 5.982498 133.324265 36.407516
v 4.790207 -104.000137 57.879356
v 5.982498 -104.003090 56.941078
v 5.982498 131.864746 56.941154
v 4.790207 132.423752 57.879436
v -4.790894 132.423752 57.879436
v -4.790894 -104.000137 57.879356
v 5.982498 145.454651 47.490067
v 4.790207 146.804947 47.878746
v 5.982498 145.454681 -47.490150
v 4.790207 146.804977 -47.878044
v 5.982498 131.864777 -56.940544
v 4.790207 132.423782 -57.879448
v 5.982498 -104.034103 -46.958679
v 5.982498 -103.996468 -56.940582
v -14.653595 -105.703270 -46.019688
v -14.653595 -105.703300 46.019424
v -4.790894 -104.037682 46.019428
v -4.790894 -104.037651 -46.019684
v -5.982193 -104.034698 46.958447
v -5.982193 118.151649 46.958523
v -4.790894 117.592751 46.019501
v -4.790894 131.973969 36.018822
v -5.982193 133.324265 36.407516
v -5.982193 -104.003090 56.941078
v -5.982193 131.864746 56.941154
v -5.982193 145.454651 47.490067
v -4.790894 146.804947 47.878746
v -5.982193 145.454681 -47.490150
v -5.982193 133.324265 -36.407646
v -5.982193 131.864777 -56.940544
v -5.982193 118.151665 -46.958645
v -4.790894 132.423782 -57.879448
v -4.790894 146.804977 -47.878044
v -5.982193 -104.034103 -46.958679
v -5.982193 -103.996468 -56.940582
v -4.790894 -103.992928 -57.879578
v -4.790894 131.973969 -36.018150
v -4.790894 117.592766 -46.019650
v 4.790207 -103.992928 -57.879578
v 5.982498 -107.164894 46.958443
v 4.790207 -107.164886 46.019424
v 14.653900 -107.159142 46.019424
v 5.982498 -107.165001 56.941074
v 14.653900 -107.159111 -46.019688
v 4.790207 -107.165016 57.879353
v 4.790207 -107.164856 -46.019688
v -4.790894 -107.165016 57.879353
v 5.982498 -107.164864 -46.958683
v -5.982193 -107.165001 56.941074
v 5.982498 -107.164993 -56.940586
v -5.982193 -107.164894 46.958443
v 4.790207 -107.165009 -57.879581
v -4.790894 -107.164886 46.019424
v -4.790894 -107.165009 -57.879581
v -14.653595 -107.159142 46.019424
v -5.982193 -107.164993 -56.940586
v -14.653595 -107.159111 -46.019688
v -5.982193 -107.164864 -46.958683
v -4.790894 -107.164856 -46.019688
vt 0.684203 0.531102
vt 0.687228 0.532539
vt 0.657486 0.563140
vt 0.656487 0.559168
vt 0.454594 0.061300
vt 0.457639 0.061300
vt 0.457639 0.531219
vt 0.454594 0.532601
vt 0.017649 0.400108
vt 0.213544 0.400108
vt 0.213664 0.421349
vt 0.017731 0.421443
vt 0.485038 0.559192
vt 0.484023 0.563160
vt 0.431007 0.061300
vt 0.434055 0.061300
vt 0.434055 0.562697
vt 0.431007 0.564077
vt 0.535385 0.039236
vt 0.535385 0.542449
vt 0.514992 0.542449
vt 0.514992 0.039236
vt 0.458967 0.590208
vt 0.457963 0.594181
vt 0.682709 0.590097
vt 0.683697 0.594067
vt 0.707577 0.562952
vt 0.710597 0.564385
vt 0.687228 0.062244
vt 0.707577 0.062244
vt 0.213832 0.462995
vt 0.017910 0.463156
vt 0.017818 0.441860
vt 0.213741 0.441717
vt 0.957415 0.051776
vt 0.960534 0.051776
vt 0.960534 0.523461
vt 0.957415 0.522099
vt 0.562042 0.503151
vt 0.582435 0.503151
vt 0.582435 0.540435
vt 0.562042 0.540435
vt 0.932710 0.554377
vt 0.931696 0.550465
vt 0.981267 0.051776
vt 0.984408 0.051776
vt 0.984408 0.554799
vt 0.981267 0.553439
vt 0.957336 0.580920
vt 0.958323 0.584835
vt 0.739400 0.580950
vt 0.763983 0.554312
vt 0.715375 0.553556
vt 0.735974 0.523517
vt 0.712316 0.554925
vt 0.738405 0.584865
vt 0.735974 0.051964
vt 0.715375 0.051964
vt 0.712316 0.051964
vt 0.537362 0.033890
vt 0.557755 0.033890
vt 0.557755 0.071174
vt 0.537362 0.071174
vt 0.684203 0.062244
vt 0.897725 0.308408
vt 0.918118 0.308408
vt 0.918118 0.512221
vt 0.897725 0.512221
vt 0.710597 0.062244
vt 0.483205 0.039836
vt 0.503597 0.039836
vt 0.503597 0.543034
vt 0.483205 0.543034
vt 0.765008 0.550400
vt 0.739027 0.522146
vt 0.739027 0.051964
vt 0.503597 0.002552
vt 0.483205 0.002552
vt 0.582435 0.031425
vt 0.562042 0.031425
vt 0.921661 0.284816
vt 0.942054 0.284816
vt 0.942054 0.438142
vt 0.921661 0.438142
vt 0.557755 0.542900
vt 0.537362 0.542900
vt 0.514992 0.001953
vt 0.535385 0.001953
vt 0.454594 0.055253
vt 0.457639 0.055253
vt 0.011218 0.420405
vt 0.014541 0.399786
vt 0.434055 0.055253
vt 0.017643 0.397010
vt 0.213534 0.397009
vt 0.431007 0.055253
vt 0.216586 0.399399
vt 0.220222 0.420171
vt 0.535385 0.549185
vt 0.514992 0.549185
vt 0.684203 0.056648
vt 0.687228 0.056648
vt 0.981267 0.045645
vt 0.984408 0.045645
vt 0.707577 0.056648
vt 0.960534 0.045645
vt 0.710597 0.056648
vt 0.957415 0.045645
vt 0.503597 0.549785
vt 0.483205 0.549785
vt 0.014861 0.463693
vt 0.011259 0.443015
vt 0.712316 0.045879
vt 0.715375 0.045879
vt 0.213846 0.466092
vt 0.017924 0.466255
vt 0.735974 0.045879
vt 0.220305 0.442778
vt 0.216892 0.463489
vt 0.739027 0.045879
vn 0.6647 -0.2165 0.7150
vn 0.7540 -0.5733 0.3207
vn 0.6187 0.0000 -0.7856
vn 0.6647 -0.2165 -0.7151
vn 0.1665 0.9860 0.0000
vn 0.7539 -0.5734 -0.3207
vn 0.6184 -0.0000 0.7858
vn 0.6645 0.2165 0.7152
vn 0.6645 0.2166 0.7152
vn 0.0000 0.2992 0.9542
vn 0.0000 -0.0000 1.0000
vn 0.7539 0.5734 0.3208
vn 0.7539 0.5734 0.3207
vn 1.0000 -0.0000 0.0000
vn 0.7539 0.5734 -0.3207
vn 0.7539 0.5734 -0.3208
vn 0.6646 0.2166 -0.7151
vn 0.6646 0.2165 -0.7151
vn -0.1665 0.9860 0.0000
vn 0.0000 1.0000 0.0000
vn -0.6190 0.0000 -0.7854
vn -0.6650 -0.2164 -0.7148
vn 0.0000 -0.2992 -0.9542
vn 0.0000 -0.8863 -0.4632
vn -0.7542 -0.5731 -0.3206
vn -0.6187 -0.0000 0.7856
vn -0.6648 0.2165 0.7150
vn -1.0000 -0.0000 0.0000
vn -0.7541 0.5731 0.3206
vn -0.6649 0.2165 -0.7149
vn -0.6649 0.2165 -0.7148
vn -0.7541 0.5731 -0.3206
vn 0.0000 -0.8863 0.4632
vn 0.0000 -0.2992 0.9542
vn 0.6187 -0.0000 0.7856
vn 0.0000 0.8863 -0.4632
vn 0.0000 0.8863 0.4632
vn 0.0000 0.2992 -0.9542
vn 0.0000 0.0000 -1.0000
vn -0.7542 -0.5731 0.3205
vn -0.6650 -0.2164 0.7148
vn -0.6190 -0.0000 0.7854
usemtl M_Basic_1:004
s 1
f 43/61/24 44/62/24 45/63/25 46/64/25
f 47/65/26 48/66/26 49/67/27 50/68/27
f 51/69/28 52/70/28 53/71/28 48/72/28
f 54/73/29 55/74/29 50/68/27 49/67/27
f 56/75/30 57/76/30 58/77/31 59/78/32
f 60/79/33 61/80/34 56/81/34 59/82/33
f 62/83/35 63/84/36 59/78/32 58/77/31
f 55/74/37 62/83/37 58/77/37 50/68/37
f 47/65/37 50/68/37 58/77/37 57/76/37
f 45/63/37 64/85/37 62/83/37 55/74/37
f 63/84/36 62/83/35 64/85/38 65/86/39
f 44/62/37 66/87/37 64/85/37 45/63/37
f 65/86/39 64/85/38 66/87/40 67/88/41
f 68/89/37 69/90/37 66/87/37 44/62/37
f 70/91/42 71/92/42 72/93/42 73/94/42
f 72/93/43 48/72/43 53/71/43 73/94/43
f 72/95/44 74/96/44 75/97/45 76/98/45
f 49/99/46 76/100/46 77/101/47 54/102/47
f 78/103/48 77/104/48 76/98/45 75/97/45
f 79/105/49 61/106/49 60/107/50 80/108/50
f 74/96/51 79/105/51 80/108/51 75/97/51
f 78/103/51 75/97/51 80/108/51 81/109/51
f 82/110/52 81/109/52 80/108/50 60/107/50
f 83/111/51 84/112/51 78/103/51 81/109/51
f 85/113/51 86/114/51 84/112/51 83/111/51
f 87/115/53 85/113/54 83/111/55 88/116/55
f 89/117/51 86/114/51 85/113/51 90/118/51
f 91/119/44 90/118/44 85/113/54 87/115/53
f 46/120/56 92/121/56 93/122/57 43/123/57
f 46/64/25 45/63/25 55/74/29 54/73/29
f 53/124/58 68/89/58 44/62/24 43/61/24
f 65/125/59 88/126/59 82/127/60 63/128/60
f 67/88/41 66/87/40 69/90/26 94/129/26
f 87/130/61 67/131/61 94/132/62 91/133/62
f 84/112/63 92/134/63 77/104/48 78/103/48
f 86/114/64 93/135/64 92/134/63 84/112/63
f 88/116/55 83/111/55 81/109/52 82/110/52
f 89/117/65 73/136/65 93/135/64 86/114/64
f 65/137/59 67/131/61 87/130/61 88/138/59
f 72/139/62 76/100/46 49/99/46 48/140/62
f 54/141/47 77/142/47 92/143/56 46/144/56
f 43/123/57 93/122/57 73/145/34 53/146/34
f 59/82/33 63/147/60 82/148/60 60/79/33
f 47/65/26 95/149/26 96/150/26 48/66/26
f 48/72/34 96/151/34 97/152/34 51/69/34
f 57/76/37 98/153/37 95/149/37 47/65/37
f 51/69/37 97/154/37 99/155/37 52/70/37
f 56/75/30 100/156/30 98/153/30 57/76/30
f 52/70/62 99/157/62 101/158/62 53/71/62
f 61/80/34 102/159/34 100/160/34 56/81/34
f 53/124/58 101/161/58 103/162/58 68/89/58
f 79/105/49 104/163/49 102/164/49 61/106/49
f 68/89/37 103/162/37 105/165/37 69/90/37
f 74/96/51 106/166/51 104/163/51 79/105/51
f 69/90/26 105/165/26 107/167/26 94/129/26
f 72/95/44 108/168/44 106/166/44 74/96/44
f 94/132/62 107/169/62 109/170/62 91/133/62
f 71/92/34 110/171/34 108/172/34 72/93/34
f 91/119/44 109/173/44 111/174/44 90/118/44
f 70/91/51 112/175/51 110/176/51 71/92/51
f 90/118/51 111/174/51 113/177/51 89/117/51
f 73/94/62 114/178/62 112/179/62 70/91/62
f 89/117/65 113/177/65 114/180/65 73/136/65
