#File written by LIBRIZOMUV. Compilation :Dec 13 2019,23:12:04
mtllib :/ventilation_raster:mtl
#begin vertices
v -200.8999 271.0499 -119.9988
v -188.9001 271.0499 -119.9988
v -188.9001 279.0499 -119.9988
v -200.8999 279.0499 -119.9988
v -188.9001 271.0499 -89.99879
v -200.8999 271.0499 -89.99879
v -200.8999 279.0499 -89.99879
v -188.9001 279.0499 -89.99879
v -188.9001 278.3572 -119.2523
v -188.9001 278.3572 -90.73119
v -200.8999 278.5441 -90.73119
v -200.8999 278.5441 -119.2523
v -189.0226 277.899 -90.65694
v -200.7929 276.2031 -119.3265
v -189.0226 277.4013 -119.3265
v -200.7929 274.2624 -119.3265
v -200.7929 274.2624 -90.65694
v -189.0226 277.4013 -90.65694
v -200.7929 276.2031 -90.65694
v -189.0226 277.899 -119.3265
v -200.7929 273.7648 -90.65694
v -189.0226 276.0162 -90.65694
v -200.7929 277.5882 -90.65694
v -200.7929 272.6641 -90.65694
v -200.7929 272.6641 -119.3265
v -200.7929 277.5882 -119.3265
v -189.0226 276.0162 -119.3265
v -200.7929 273.7648 -119.3265
v -189.0226 273.5779 -119.3265
v -189.0226 275.5186 -119.3265
v -200.7929 277.13 -119.3265
v -189.0226 272.4772 -119.3265
v -189.0226 272.4772 -90.65694
v -200.7929 277.13 -90.65694
v -189.0226 275.5186 -90.65694
v -189.0226 273.5779 -90.65694
v -189.0226 273.1197 -90.65694
v -200.7929 275.7055 -90.65694
v -189.0226 276.9431 -90.65694
v -200.7929 274.7207 -90.65694
v -200.7929 275.7055 -119.3265
v -189.0226 273.1197 -119.3265
v -200.7929 274.7207 -119.3265
v -189.0226 276.9431 -119.3265
v -189.0226 276.4744 -119.3265
v -189.0226 274.5337 -119.3265
v -200.7929 273.3066 -119.3265
v -200.7929 275.2473 -119.3265
v -200.7929 275.2473 -90.65694
v -200.7929 273.3066 -90.65694
v -189.0226 274.5337 -90.65694
v -189.0226 276.4744 -90.65694
v -200.7929 276.6614 -90.65694
v -189.0226 274.0755 -90.65694
v -200.7929 278.0859 -119.3265
v -189.0226 275.0603 -90.65694
v -200.8999 272.2059 -119.2523
v -188.9001 272.019 -119.2523
v -188.9001 272.019 -90.73119
v -200.8999 272.2059 -90.73119
v -200.7929 276.6614 -119.3265
v -189.0226 274.0755 -119.3265
v -200.7929 278.0859 -90.65694
v -189.0226 275.0603 -119.3265
#end vertices

#begin 96 textures vertices 
vt 0.001953125 0.5304334 0
vt 0.1398158 0.5304334 0
vt 0.1398158 0.4385238 0
vt 0.001953125 0.4385238 0
vt 0.1398158 0.001953125 0
vt 0.001953125 0.8750944 0
vt 0.001953125 0.09386273 0
vt 0.1398158 0.09386273 0
vt 0.8831898 0.686681 0
vt 0.150326 0.4024324 0
vt 0.2882054 0.4024324 0
vt 0.9664072 0.3380379 0
vt 0.7375868 0.3313296 0
vt 0.8677503 0.664688 0
vt 0.7318691 0.001953275 0
vt 0.2964307 0.6686703 0
vt 0.5783499 0.9980466 0
vt 0.7318687 0.3313296 0
vt 0.585831 0.3353118 0
vt 0.7375868 0.001953275 0
vt 0.3021473 0.9980466 0
vt 0.7210738 0.3353118 0
vt 0.5966259 0.3313294 0
vt 0.5742979 0.001953125 0
vt 0.5742979 0.3313294 0
vt 0.5966263 0.001953131 0
vt 0.7210738 0.6646882 0
vt 0.3021473 0.6686703 0
vt 0.4373901 0.6686703 0
vt 0.7267908 0.6646881 0
vt 0.8670852 0.9980469 0
vt 0.4390552 0.3313294 0
vt 0.4390552 0.001953125 0
vt 0.5858314 0.6686703 0
vt 0.7267905 0.3353118 0
vt 0.4373901 0.9980466 0
vt 0.4316735 0.001953133 0
vt 0.8620333 0.3353117 0
vt 0.7210742 0.6686704 0
vt 0.5729664 0.3353115 0
vt 0.8620336 0.664688 0
vt 0.4316738 0.3313294 0
vt 0.5729667 0.6646879 0
vt 0.7210738 0.9980467 0
vt 0.7264585 0.9980467 0
vt 0.4377239 0.664688 0
vt 0.5816793 0.3313294 0
vt 0.5790164 0.6646879 0
vt 0.2964307 0.3353118 0
vt 0.2964307 0.001953279 0
vt 0.4377236 0.3353117 0
vt 0.7264588 0.6686704 0
vt 0.8617016 0.6686706 0
vt 0.4431071 0.9980466 0
vt 0.5909082 0.001953125 0
vt 0.4316735 0.3353117 0
vt 0.8935896 0.3380379 0
vt 0.1491919 0.001953125 0
vt 0.9560075 0.3590106 0
vt 0.2870713 0.3296236 0
vt 0.8617013 0.9980469 0
vt 0.4431071 0.6686703 0
vt 0.8728296 0.3313296 0
vt 0.4316738 0.664688 0
vt 0.8803086 0.3466142 0
vt 0.9722182 0.3466142 0
vt 0.8752314 0.6952573 0
vt 0.967141 0.6952573 0
vt 0.967141 0.3505963 0
vt 0.8752314 0.3505963 0
vt 0.9722182 0.001953125 0
vt 0.8803086 0.001953125 0
vt 0.001953125 0.001953125 0
vt 0.1398158 0.8750944 0
vt 0.296431 0.6646881 0
vt 0.5790164 0.3353115 0
vt 0.585831 0.6646882 0
vt 0.8677503 0.3353117 0
vt 0.5909082 0.3313294 0
vt 0.8728296 0.001953273 0
vt 0.585831 0.9980466 0
vt 0.5816793 0.001953125 0
vt 0.8670852 0.6686706 0
vt 0.296431 0.3313296 0
vt 0.2964307 0.9980466 0
vt 0.5783499 0.6686703 0
vt 0.2882054 0.7301028 0
vt 0.8935896 0.01036744 0
vt 0.9664072 0.01036744 0
vt 0.2870713 0.001953125 0
vt 0.2870713 0.8029116 0
vt 0.150326 0.7301028 0
vt 0.8831898 0.3590106 0
vt 0.9560075 0.686681 0
vt 0.1491919 0.8029116 0
vt 0.1491919 0.3296236 0
#end 96 textures vertices 

#begin 17 normals 
vn 0 0 -1
vn 0 0 1
vn 0 -1 0
vn 0 1 0
vn 0.01588381 0.9998738 0
vn -0.01587733 -0.9998739 -5.321621e-07
vn 1 0 0
vn -1 0 0
vn 0.01587733 0.9998739 5.321621e-07
vn -0.01588381 -0.9998738 0
vn 0.01587733 0.9998739 5.323028e-07
vn -0.01587733 -0.9998739 -5.323028e-07
vn -0.01557499 -0.9998787 0
vn 0.01587604 0.999874 0
vn -0.01587863 -0.9998739 0
vn -0.01588511 -0.9998738 -5.319495e-07
vn 0.01557499 0.9998787 0
#end 17 normals 

#begin 40 faces
o ventilation_raster_01
usemtl Lit_2
f 1/1/1 4/4/1 3/3/1 2/2/1 
f 5/5/2 8/8/2 7/7/2 6/73/2 
f 1/1/3 2/2/3 5/74/3 6/6/3 
f 3/3/4 4/4/4 7/7/4 8/8/4 
f 64/64/5 48/75/5 49/49/5 56/56/5 
f 41/41/6 30/30/6 35/35/6 38/38/6 
f 58/94/7 2/68/7 3/67/7 9/9/7 
f 4/66/8 1/65/8 57/57/8 12/12/8 
f 27/27/9 14/77/9 19/19/9 22/22/9 
f 61/61/10 45/45/10 52/52/10 53/53/10 
f 13/13/7 18/18/7 15/15/7 20/20/7 
f 25/25/8 24/24/8 50/82/8 47/47/8 
f 44/44/11 31/81/11 34/34/11 39/39/11 
f 26/26/12 15/15/12 18/18/12 23/23/12 
f 59/59/7 5/69/7 2/68/7 58/94/7 
f 22/22/7 35/35/7 30/30/7 27/27/7 
f 20/20/11 55/80/11 63/63/11 13/13/11 
f 12/87/13 9/92/13 10/10/13 11/11/13 
f 54/54/7 36/36/7 29/29/7 62/62/7 
f 28/28/8 21/21/8 17/85/8 16/16/8 
f 50/50/14 37/37/14 42/42/14 47/84/14 
f 36/36/15 21/21/15 28/28/15 29/29/15 
f 8/70/7 5/69/7 59/59/7 10/93/7 
f 37/37/7 33/33/7 32/32/7 42/42/7 
f 17/17/14 54/54/14 62/62/14 16/86/14 
f 51/51/16 40/40/16 43/43/16 46/46/16 
f 9/9/7 3/67/7 8/70/7 10/93/7 
f 40/40/8 49/76/8 48/48/8 43/43/8 
f 57/90/17 60/60/17 59/96/17 58/58/17 
f 33/33/6 24/24/6 25/25/6 32/32/6 
f 9/92/2 12/87/2 57/91/2 58/95/2 
f 59/96/1 60/60/1 11/11/1 10/10/1 
f 11/89/8 7/71/8 4/66/8 12/12/8 
f 51/51/7 46/46/7 64/64/7 56/56/7 
f 41/41/8 38/38/8 19/78/8 14/14/8 
f 26/26/8 23/23/8 63/79/8 55/55/8 
f 57/57/8 1/65/8 6/72/8 60/88/8 
f 60/88/8 6/72/8 7/71/8 11/89/8 
f 61/61/8 53/53/8 34/83/8 31/31/8 
f 39/39/7 52/52/7 45/45/7 44/44/7 
#end 40 faces

#begin properties
#ZOMPROPERTIES_02 table {Mesh table {SymPlane table {Point vector3d 0 0 0 Normal vector3d 1 0 0 Threshold double 0.01 Enabled bool false EdgeID int -1 SymEdgeID int -1 UPos double 0.5 LocalMode bool false } RootGroup CSubMeshGroup {Children table {Tile_0_0 CSubMeshGroup {Children table {} BBoxUV box3d 0 0 0 0 0 0 BBox3D box3d 0 0 0 0 0 0 AreaUV double 0.8046869 Area3D double 0 IsRoot bool false TopoStable table {Selected bool false Box box3d 0 1 0 1 0 1 U int 0 V int 0 NU int 0 NV int 0 Tiling vector3d 1 1 1 TileRatioMode string "1:1" } IsTile bool true PolyIDs ints { 0 3 1 2 4 33 25 27 5 15 8 34 6 26 22 14 7 36 37 32 9 39 12 38 10 13 35 16 11 29 23 20 17 31 28 30 18 21 19 24 } } } BBoxUV box3d 0 0 0 0 0 0 BBox3D box3d 0 0 0 0 0 0 AreaUV double 0 Area3D double 0 IsRoot bool true TopoStable table {Selected bool false Box box3d 0 1 0 1 0 1 U int 0 V int 0 NU int 1 NV int 1 Tiling vector3d 1 1 1 TileRatioMode string "1:1" Pack table {Rotate table {Mode int 2 Min double 0 Max double 180 Step double 0 } SpacingSize double 0.00390625 MarginSize double 0.001953125 Resolution int 200 Scaling table {Mode int 0 } LayoutScalingMode int 2 MaxMutations int 1 } } IsTile bool false PolyIDs ints { } } Maps table {Density table {PrimType string "Polygon" Size int 1 DefaultValue double 1 ScaleType string "Log" Mergeode string "Average" MinValue double 0.1 MaxValue double 4 Data doubles { r 40 1 } } Pin table {PrimType string "Vertex" Size int 1 DefaultValue double 0 ScaleType string "Normalized" Mergeode string "Max" MinValue double 0 MaxValue double 1 Data doubles { r 96 0 } } Protect table {PrimType string "Vertex" Size int 1 DefaultValue double 0 ScaleType string "Normalized" Mergeode string "Average" MinValue double -1 MaxValue double 1 Data doubles { r 96 0 } } } } }
#end properties

#begin 0 fatal error vertex (that RizomUV cannot handle)
#end 0 fatal error vertex (that RizomUV cannot handle)

#begin 0 error vertex
#end 0 error vertex
